<svg width="211" height="164" viewBox="0 0 211 164" fill="none" xmlns="http://www.w3.org/2000/svg">
<path style="mix-blend-mode:multiply" opacity="0.5" fill-rule="evenodd" clip-rule="evenodd" d="M107.064 164C146.682 164 178.798 162.163 178.798 159.894C178.798 157.626 146.682 155.789 107.064 155.789C67.4465 155.789 35.332 157.627 35.332 159.894C35.332 162.161 67.4484 164 107.064 164Z" fill="url(#paint0_linear_29_474)"/>
<path style="mix-blend-mode:multiply" opacity="0.5" fill-rule="evenodd" clip-rule="evenodd" d="M97.9721 161.538C129.944 161.538 155.863 160.805 155.863 159.9C155.863 158.995 129.944 158.264 97.9721 158.264C65.9996 158.264 40.0835 158.989 40.0835 159.892C40.0835 160.796 66.0015 161.538 97.9721 161.538Z" fill="url(#paint1_linear_29_474)"/>
<path fill-rule="evenodd" clip-rule="evenodd" d="M174.145 27.3573H150.56C148.653 27.3573 147.093 29.0087 147.093 31.0085V54.423C147.093 56.4228 148.661 58.0742 150.56 58.0742H174.145C176.039 58.0742 177.614 56.4304 177.614 54.423V31.0085C177.614 29.0011 176.056 27.3573 174.145 27.3573Z" fill="url(#paint2_linear_29_474)"/>
<path fill-rule="evenodd" clip-rule="evenodd" d="M164.581 33.0272L164.22 30.1108H160.485L160.123 33.0253C159.027 33.2544 157.974 33.6572 157.004 34.2184L154.762 32.4818L152.12 35.1236L153.736 37.2068C153.035 38.2094 152.53 39.3359 152.249 40.5265L149.751 40.8447V44.5792L152.249 44.8973C152.53 46.0875 153.034 47.2135 153.736 48.2152L152.12 50.2984L154.762 52.9402L157.004 51.2036C157.974 51.764 159.027 52.1667 160.123 52.3967L160.485 55.3093H164.22L164.581 52.3967C165.678 52.1676 166.731 51.7648 167.7 51.2036L169.943 52.9402L172.594 50.2984L170.978 48.2152C171.677 47.2141 172.179 46.0895 172.457 44.9011L174.957 44.583V40.8485L172.457 40.5265C172.176 39.3359 171.672 38.2094 170.971 37.2068L172.586 35.1236L169.935 32.4818L167.693 34.2184C166.723 33.6572 165.67 33.2544 164.574 33.0253L164.581 33.0272ZM162.352 36.3716C163.607 36.3716 164.834 36.7437 165.877 37.4408C166.92 38.1379 167.733 39.1287 168.213 40.288C168.694 41.4472 168.819 42.7228 168.575 43.9534C168.33 45.184 167.726 46.3145 166.838 47.2017C165.951 48.0889 164.821 48.6932 163.59 48.9379C162.359 49.1827 161.084 49.0571 159.925 48.5769C158.765 48.0968 157.774 47.2836 157.077 46.2403C156.38 45.1971 156.008 43.9705 156.008 42.7157C156.008 41.0332 156.677 39.4195 157.866 38.2298C159.056 37.04 160.67 36.3716 162.352 36.3716Z" fill="white"/>
<path style="mix-blend-mode:multiply" opacity="0.5" fill-rule="evenodd" clip-rule="evenodd" d="M147.093 41.5302H154.997C156.038 41.5267 157.036 41.1116 157.772 40.3754C158.508 39.6392 158.923 38.6418 158.927 37.6007V27.3573H150.56C148.653 27.3573 147.093 29.0087 147.093 31.0085V41.5302Z" fill="url(#paint3_linear_29_474)"/>
<path fill-rule="evenodd" clip-rule="evenodd" d="M124.475 0H151.102C152.004 0.0044799 152.869 0.365057 153.507 1.00336C154.145 1.64166 154.506 2.50609 154.51 3.40878V33.5196C154.505 34.422 154.144 35.2859 153.506 35.924C152.868 36.562 152.004 36.9229 151.102 36.9284H124.475C123.573 36.9234 122.709 36.5627 122.07 35.9245C121.432 35.2863 121.071 34.4222 121.066 33.5196V3.40878C121.071 2.50609 121.431 1.64166 122.07 1.00336C122.708 0.365057 123.572 0.0044799 124.475 0Z" fill="url(#paint4_linear_29_474)"/>
<path d="M150.371 4.17194H130.427C130.05 4.17194 129.744 4.47802 129.744 4.85559V6.03729C129.744 6.41486 130.05 6.72094 130.427 6.72094H150.371C150.748 6.72094 151.054 6.41486 151.054 6.03729V4.85559C151.054 4.47802 150.748 4.17194 150.371 4.17194Z" fill="#F28CDC"/>
<path d="M127.909 3.36145H124.905C124.693 3.36145 124.521 3.53357 124.521 3.74588V7.1433C124.521 7.35561 124.693 7.52773 124.905 7.52773H127.909C128.121 7.52773 128.293 7.35561 128.293 7.1433V3.74588C128.293 3.53357 128.121 3.36145 127.909 3.36145Z" fill="#F28CDC"/>
<path d="M150.223 9.73016H125.204C124.827 9.73016 124.521 10.0362 124.521 10.4138V11.5955C124.521 11.9731 124.827 12.2792 125.204 12.2792H150.223C150.6 12.2792 150.907 11.9731 150.907 11.5955V10.4138C150.907 10.0362 150.6 9.73016 150.223 9.73016Z" fill="#F28CDC"/>
<path d="M150.223 14.7676H125.204C124.827 14.7676 124.521 15.0737 124.521 15.4512V16.6329C124.521 17.0105 124.827 17.3166 125.204 17.3166H150.223C150.6 17.3166 150.907 17.0105 150.907 16.6329V15.4512C150.907 15.0737 150.6 14.7676 150.223 14.7676Z" fill="#F28CDC"/>
<path d="M150.371 20.4394H130.427C130.05 20.4394 129.744 20.7455 129.744 21.123V22.3048C129.744 22.6823 130.05 22.9884 130.427 22.9884H150.371C150.748 22.9884 151.054 22.6823 151.054 22.3048V21.123C151.054 20.7455 150.748 20.4394 150.371 20.4394Z" fill="#F28CDC"/>
<path d="M127.909 19.6307H124.905C124.693 19.6307 124.521 19.8029 124.521 20.0152V23.4126C124.521 23.6249 124.693 23.797 124.905 23.797H127.909C128.121 23.797 128.293 23.6249 128.293 23.4126V20.0152C128.293 19.8029 128.121 19.6307 127.909 19.6307Z" fill="#F28CDC"/>
<path d="M150.223 25.9976H125.204C124.827 25.9976 124.521 26.3037 124.521 26.6813V27.863C124.521 28.2405 124.827 28.5466 125.204 28.5466H150.223C150.6 28.5466 150.907 28.2405 150.907 27.863V26.6813C150.907 26.3037 150.6 25.9976 150.223 25.9976Z" fill="#F28CDC"/>
<path d="M150.223 31.035H125.204C124.827 31.035 124.521 31.3411 124.521 31.7187V32.9004C124.521 33.278 124.827 33.584 125.204 33.584H150.223C150.6 33.584 150.907 33.278 150.907 32.9004V31.7187C150.907 31.3411 150.6 31.035 150.223 31.035Z" fill="#F28CDC"/>
<path style="mix-blend-mode:multiply" opacity="0.5" fill-rule="evenodd" clip-rule="evenodd" d="M138.133 36.9454H123.381C122.106 36.9454 121.059 35.7656 121.059 34.3264V12.3587H129.408C131.72 12.3652 133.936 13.2865 135.57 14.9212C137.205 16.556 138.127 18.7714 138.133 21.0833V36.9454Z" fill="url(#paint5_linear_29_474)"/>
<path d="M125.998 16.8526H62.5623C58.0681 16.8526 54.4248 20.4959 54.4248 24.9901V150.666C54.4248 155.16 58.0681 158.803 62.5623 158.803H125.998C130.492 158.803 134.135 155.16 134.135 150.666V24.9901C134.135 20.4959 130.492 16.8526 125.998 16.8526Z" fill="#CB5E5B"/>
<path d="M125.375 17.6594H63.1855C58.7791 17.6594 55.207 21.2314 55.207 25.6378V150.016C55.207 154.423 58.7791 157.995 63.1855 157.995H125.375C129.781 157.995 133.353 154.423 133.353 150.016V25.6378C133.353 21.2314 129.781 17.6594 125.375 17.6594Z" fill="#FA9C9B"/>
<path d="M105.337 23.3331H83.2254C82.8949 23.3331 82.627 23.601 82.627 23.9315V24.9636C82.627 25.2941 82.8949 25.562 83.2254 25.562H105.337C105.668 25.562 105.935 25.2941 105.935 24.9636V23.9315C105.935 23.601 105.668 23.3331 105.337 23.3331Z" fill="#485AF4"/>
<path fill-rule="evenodd" clip-rule="evenodd" d="M126.795 23.066C127.069 23.0657 127.336 23.1464 127.564 23.2981C127.791 23.4498 127.969 23.6656 128.074 23.9181C128.179 24.1707 128.206 24.4487 128.153 24.717C128.1 24.9853 127.968 25.2318 127.775 25.4254C127.582 25.6189 127.336 25.7507 127.067 25.8042C126.799 25.8577 126.521 25.8305 126.268 25.7259C126.016 25.6213 125.8 25.4441 125.648 25.2167C125.496 24.9893 125.415 24.722 125.415 24.4485C125.415 24.0822 125.56 23.7308 125.819 23.4716C126.078 23.2124 126.429 23.0665 126.795 23.066Z" fill="#485AF4"/>
<path style="mix-blend-mode:multiply" opacity="0.5" fill-rule="evenodd" clip-rule="evenodd" d="M68.6793 27.6338H119.896C123.511 27.6338 126.468 30.5123 126.468 34.0252V87.5449C126.468 91.0579 123.509 93.9345 119.896 93.9345H68.6793C65.0679 93.9345 62.1099 91.0597 62.1099 87.5449V34.0252C62.1023 30.5104 65.0585 27.6338 68.6793 27.6338Z" fill="url(#paint6_linear_29_474)"/>
<path opacity="0.5" fill-rule="evenodd" clip-rule="evenodd" d="M94.2811 105.24C98.1978 105.24 102.026 106.402 105.283 108.578C108.54 110.754 111.078 113.846 112.577 117.465C114.076 121.084 114.468 125.065 113.704 128.907C112.94 132.748 111.053 136.277 108.284 139.046C105.514 141.816 101.986 143.702 98.1445 144.466C94.3031 145.23 90.3213 144.838 86.7028 143.339C83.0843 141.84 79.9914 139.302 77.8154 136.045C75.6394 132.789 74.478 128.96 74.478 125.043C74.478 119.791 76.5644 114.754 80.2782 111.04C83.992 107.327 89.029 105.24 94.2811 105.24ZM94.2811 110.045C91.3146 110.045 88.4148 110.924 85.9483 112.572C83.4818 114.221 81.5594 116.563 80.4242 119.304C79.289 122.044 78.9919 125.06 79.5707 127.969C80.1494 130.879 81.5779 133.551 83.6755 135.649C85.7731 137.747 88.4456 139.175 91.355 139.754C94.2644 140.332 97.2802 140.035 100.021 138.9C102.761 137.765 105.104 135.843 106.752 133.376C108.4 130.91 109.28 128.01 109.28 125.043C109.28 121.065 107.7 117.251 104.887 114.438C102.074 111.625 98.259 110.045 94.2811 110.045Z" fill="white"/>
<path style="mix-blend-mode:multiply" opacity="0.5" d="M98.4417 96.7278H90.1205C88.1699 96.7278 86.5886 98.309 86.5886 100.26V149.825C86.5886 151.776 88.1699 153.357 90.1205 153.357H98.4417C100.392 153.357 101.974 151.776 101.974 149.825V100.26C101.974 98.309 100.392 96.7278 98.4417 96.7278Z" fill="url(#paint7_linear_29_474)"/>
<path d="M97.1465 96.7278H91.414C90.0711 96.7278 88.9824 97.8164 88.9824 99.1594V150.925C88.9824 152.268 90.0711 153.357 91.414 153.357H97.1465C98.4894 153.357 99.578 152.268 99.578 150.925V99.1594C99.578 97.8164 98.4894 96.7278 97.1465 96.7278Z" fill="url(#paint8_linear_29_474)"/>
<path d="M94.5127 128.125C96.2352 128.003 97.5321 126.507 97.4095 124.785C97.287 123.062 95.7913 121.765 94.0689 121.888C92.3465 122.01 91.0495 123.506 91.1721 125.228C91.2947 126.951 92.7903 128.248 94.5127 128.125Z" fill="white"/>
<path fill-rule="evenodd" clip-rule="evenodd" d="M94.2811 111.902C94.7279 111.904 95.1641 112.038 95.5348 112.288C95.9055 112.537 96.1941 112.891 96.3642 113.304C96.5343 113.717 96.5784 114.171 96.4907 114.609C96.4031 115.047 96.1878 115.45 95.8718 115.766C95.5559 116.082 95.1535 116.297 94.7154 116.385C94.2773 116.472 93.8231 116.428 93.41 116.258C92.9969 116.088 92.6433 115.799 92.3939 115.429C92.1446 115.058 92.0104 114.622 92.0086 114.175C92.0071 113.876 92.0648 113.58 92.1785 113.304C92.2922 113.027 92.4595 112.776 92.6708 112.565C92.8822 112.353 93.1333 112.186 93.4097 112.072C93.6861 111.959 93.9822 111.901 94.2811 111.902Z" fill="white"/>
<path fill-rule="evenodd" clip-rule="evenodd" d="M94.2811 133.66C94.7283 133.662 95.165 133.796 95.536 134.046C95.9069 134.296 96.1955 134.65 96.3653 135.064C96.535 135.478 96.5784 135.933 96.4899 136.371C96.4013 136.809 96.1848 137.212 95.8678 137.527C95.5507 137.843 95.1473 138.057 94.7085 138.143C94.2696 138.23 93.815 138.184 93.4021 138.012C92.9892 137.84 92.6364 137.55 92.3884 137.178C92.1403 136.806 92.0082 136.368 92.0085 135.921C92.0083 135.623 92.067 135.328 92.1812 135.053C92.2955 134.778 92.4631 134.528 92.6743 134.318C92.8855 134.107 93.1362 133.941 93.412 133.828C93.6878 133.715 93.9831 133.658 94.2811 133.66Z" fill="white"/>
<path fill-rule="evenodd" clip-rule="evenodd" d="M94.281 103.15C94.5214 103.15 94.7565 103.221 94.9565 103.354C95.1564 103.488 95.3122 103.678 95.4042 103.9C95.4963 104.122 95.5203 104.367 95.4734 104.603C95.4265 104.838 95.3107 105.055 95.1407 105.225C94.9707 105.395 94.754 105.511 94.5182 105.558C94.2823 105.605 94.0379 105.581 93.8157 105.489C93.5936 105.397 93.4037 105.241 93.2701 105.041C93.1365 104.841 93.0652 104.606 93.0652 104.365C93.0652 104.043 93.1933 103.734 93.4213 103.506C93.6493 103.278 93.9585 103.15 94.281 103.15Z" fill="white"/>
<path d="M94.281 146.937C94.9524 146.937 95.4968 146.393 95.4968 145.721C95.4968 145.05 94.9524 144.506 94.281 144.506C93.6095 144.506 93.0652 145.05 93.0652 145.721C93.0652 146.393 93.6095 146.937 94.281 146.937Z" fill="white"/>
<path fill-rule="evenodd" clip-rule="evenodd" d="M70.541 30.054H118.021C121.371 30.054 124.112 32.7204 124.112 35.9777V85.5981C124.112 88.8554 121.37 91.5218 118.021 91.5218H70.541C67.1909 91.5218 64.4487 88.8554 64.4487 85.5981V35.9815C64.4487 32.7185 67.1909 30.054 70.541 30.054Z" fill="white"/>
<path d="M47.9861 29.4291H23.6531C22.1314 29.4291 20.8977 30.6627 20.8977 32.1845V46.5695C20.8977 48.0913 22.1314 49.325 23.6531 49.325H47.9861C49.5079 49.325 50.7416 48.0913 50.7416 46.5695V32.1845C50.7416 30.6627 49.5079 29.4291 47.9861 29.4291Z" fill="url(#paint9_linear_29_474)"/>
<path fill-rule="evenodd" clip-rule="evenodd" d="M47.2324 38.6233L39.8827 34.3264L40.5096 32.4591L49.4387 37.6783L48.6793 39.9414L35.8774 46.2931V46.2684L36.7599 43.638L47.2324 38.6233Z" fill="white"/>
<path fill-rule="evenodd" clip-rule="evenodd" d="M32.283 46.704L37.1973 32.0501L39.3126 32.0482L34.3983 46.704H32.283Z" fill="white"/>
<path fill-rule="evenodd" clip-rule="evenodd" d="M24.4069 40.1289L31.7566 44.4258L31.1298 46.2931L22.2007 41.0738L22.9601 38.8108L35.7601 32.4591V32.4837L34.8794 35.1142L24.4069 40.1289Z" fill="white"/>
<path opacity="0.5" fill-rule="evenodd" clip-rule="evenodd" d="M10.6335 125.138H24.7913C25.5314 125.141 26.2404 125.436 26.7637 125.959C27.287 126.482 27.5821 127.191 27.5846 127.931V141.159C27.5821 141.9 27.2868 142.609 26.763 143.132C26.2393 143.656 25.5298 143.951 24.7894 143.953H10.6316C9.89123 143.951 9.1817 143.656 8.65799 143.132C8.13427 142.609 7.83892 141.9 7.83643 141.159V127.931C7.83892 127.191 8.13427 126.482 8.65799 125.958C9.1817 125.435 9.89123 125.14 10.6316 125.138H10.6335ZM10.6335 127.166C10.4335 127.169 10.2426 127.25 10.1011 127.391C9.9597 127.533 9.87895 127.724 9.87601 127.924V141.152C9.87697 141.353 9.95679 141.546 10.0984 141.69C10.24 141.833 10.4321 141.915 10.6335 141.919H24.7913C24.9928 141.915 25.1849 141.833 25.3264 141.69C25.468 141.546 25.5478 141.353 25.5488 141.152V127.931C25.5459 127.731 25.4651 127.54 25.3237 127.399C25.1823 127.258 24.9913 127.177 24.7913 127.174L10.6335 127.166Z" fill="#70C851"/>
<path opacity="0.5" d="M35.224 134.452H21.0662C19.5224 134.452 18.271 135.703 18.271 137.247V150.473C18.271 152.017 19.5224 153.268 21.0662 153.268H35.224C36.7677 153.268 38.0192 152.017 38.0192 150.473V137.247C38.0192 135.703 36.7677 134.452 35.224 134.452Z" fill="url(#paint10_linear_29_474)"/>
<path opacity="0.5" d="M50.842 1.16278H36.6273C35.0773 1.16278 33.8208 2.41932 33.8208 3.96934V17.2484C33.8208 18.7984 35.0773 20.055 36.6273 20.055H50.842C52.392 20.055 53.6485 18.7984 53.6485 17.2484V3.96934C53.6485 2.41932 52.392 1.16278 50.842 1.16278Z" fill="#FA9C9B"/>
<path opacity="0.5" fill-rule="evenodd" clip-rule="evenodd" d="M164.072 129.723C165.601 129.723 167.095 130.176 168.367 131.026C169.638 131.875 170.629 133.082 171.214 134.495C171.799 135.907 171.952 137.462 171.654 138.961C171.355 140.461 170.619 141.838 169.538 142.919C168.457 144 167.08 144.737 165.58 145.035C164.08 145.333 162.526 145.18 161.114 144.595C159.701 144.01 158.494 143.019 157.644 141.748C156.795 140.477 156.342 138.982 156.342 137.453C156.342 135.403 157.156 133.437 158.606 131.987C160.055 130.537 162.022 129.723 164.072 129.723ZM164.072 131.7C162.934 131.7 161.821 132.037 160.875 132.669C159.929 133.301 159.191 134.199 158.755 135.25C158.32 136.301 158.205 137.458 158.427 138.574C158.649 139.691 159.197 140.716 160.001 141.521C160.806 142.325 161.831 142.874 162.947 143.096C164.063 143.318 165.22 143.204 166.271 142.769C167.323 142.333 168.221 141.596 168.854 140.65C169.486 139.704 169.823 138.591 169.823 137.453C169.823 135.928 169.217 134.465 168.139 133.386C167.06 132.307 165.597 131.7 164.072 131.7Z" fill="url(#paint11_linear_29_474)"/>
<path opacity="0.5" fill-rule="evenodd" clip-rule="evenodd" d="M14.3719 67.7513H22.3787C22.7976 67.7528 23.199 67.9199 23.4952 68.2161C23.7914 68.5124 23.9585 68.9137 23.96 69.3326V76.813C23.9585 77.2317 23.7914 77.6329 23.4951 77.9288C23.1988 78.2247 22.7975 78.3914 22.3787 78.3924H14.3719C13.9533 78.3914 13.5522 78.2247 13.2562 77.9287C12.9602 77.6327 12.7935 77.2316 12.7925 76.813V69.3326C12.7935 68.9139 12.9601 68.5125 13.2561 68.2163C13.552 67.92 13.9531 67.7528 14.3719 67.7513ZM14.3719 68.899C14.257 68.8995 14.147 68.9453 14.0658 69.0265C13.9846 69.1078 13.9387 69.2178 13.9382 69.3326V76.813C13.9387 76.9279 13.9846 77.0379 14.0658 77.1191C14.147 77.2003 14.257 77.2462 14.3719 77.2467H22.3787C22.4936 77.2462 22.6036 77.2003 22.6848 77.1191C22.766 77.0379 22.8119 76.9279 22.8124 76.813V69.3326C22.8119 69.2178 22.766 69.1078 22.6848 69.0265C22.6036 68.9453 22.4936 68.8995 22.3787 68.899H14.3719Z" fill="white"/>
<path style="mix-blend-mode:multiply" opacity="0.5" fill-rule="evenodd" clip-rule="evenodd" d="M54.4248 78.1026H74.9021C77.9189 78.1026 80.394 80.5247 80.394 83.4828V128.554C80.394 131.512 77.9321 133.935 74.9021 133.935H54.4248V78.1026Z" fill="url(#paint12_linear_29_474)"/>
<path d="M71.9252 81.4678H35.046C32.4334 81.4678 30.3154 83.5858 30.3154 86.1985V125.827C30.3154 128.44 32.4334 130.558 35.046 130.558H71.9252C74.5378 130.558 76.6559 128.44 76.6559 125.827V86.1985C76.6559 83.5858 74.5378 81.4678 71.9252 81.4678Z" fill="#CB5E5B"/>
<path fill-rule="evenodd" clip-rule="evenodd" d="M51.7187 99.8222H55.2979V101.316C58.6659 100.885 61.8007 99.3648 64.2256 96.988C66.6506 94.6113 68.233 91.5076 68.7323 88.149H67.2438V84.1911H71.1999V88.149H69.4955C68.99 91.7098 67.3243 95.0044 64.7565 97.5225C62.1887 100.041 58.8622 101.642 55.2923 102.078V102.456H68.4899V101.131H71.8173V104.441H68.4899V103.115H55.2961V103.778H51.3381V103.112H38.4775V104.437H35.1597V101.116H38.487V102.441H51.3476V102.063C47.7775 101.627 44.4508 100.026 41.883 97.5077C39.3151 94.9896 37.6496 91.6947 37.1443 88.1339H35.4399V84.1759H39.396V88.1339H37.9075C38.4043 91.4947 39.9853 94.6012 42.41 96.9808C44.8347 99.3604 47.9704 100.883 51.34 101.316V99.826L51.7187 99.8222ZM71.0636 101.871H69.2474V103.685H71.0636V101.871ZM37.7238 101.871H35.9172V103.685H37.7314V101.871H37.7238ZM70.4443 84.941H67.9994V87.3858H70.4443V84.941ZM38.629 84.941H36.1842V87.3858H38.629V84.941ZM54.5367 100.578H52.0937V103.021H54.5367V100.578Z" fill="white"/>
<path fill-rule="evenodd" clip-rule="evenodd" d="M53.4856 85.566L57.0838 89.9463C56.1369 93.0312 54.4552 96.4608 54.4552 99.72H53.7299V92.0881C54.0465 92.0177 54.329 91.8398 54.5292 91.5847C54.7295 91.3295 54.8351 91.0129 54.8283 90.6886C54.8402 90.5051 54.8144 90.321 54.7524 90.1479C54.6904 89.9747 54.5935 89.8161 54.4677 89.6819C54.3419 89.5477 54.19 89.4407 54.0212 89.3676C53.8524 89.2944 53.6705 89.2567 53.4866 89.2567C53.3026 89.2567 53.1206 89.2944 52.9519 89.3676C52.7831 89.4407 52.6311 89.5477 52.5054 89.6819C52.3796 89.8161 52.2827 89.9747 52.2207 90.1479C52.1587 90.321 52.1329 90.5051 52.1448 90.6886C52.1379 91.0126 52.2433 91.329 52.4432 91.5841C52.643 91.8393 52.925 92.0173 53.2413 92.0881V99.72H52.516C52.516 96.4608 50.8116 92.8021 49.8875 89.9463L53.4856 85.566Z" fill="#70C851"/>
<path d="M55.4588 85.3519H51.5122V87.7381H55.4588V85.3519Z" fill="#485AF4"/>
<path fill-rule="evenodd" clip-rule="evenodd" d="M73.3284 124.532H70.0048V121.201H71.3153C71.1979 116.551 69.2681 112.13 65.9375 108.883C62.6069 105.635 58.1392 103.817 53.4874 103.817C48.8356 103.817 44.3679 105.635 41.0373 108.883C37.7067 112.13 35.7769 116.551 35.6595 121.201H36.9719V124.526H33.6445V121.201H34.9266C34.9266 116.279 36.8819 111.558 40.3624 108.078C43.8428 104.597 48.5634 102.642 53.4855 102.642C58.4076 102.642 63.1281 104.597 66.6086 108.078C70.0891 111.558 72.0444 116.279 72.0444 121.201H73.3265V124.526L73.3284 124.532ZM36.2106 121.962H34.402V123.776H36.2163V121.958L36.2106 121.962ZM72.5709 121.962H70.7623V123.776H72.5765L72.5709 121.962Z" fill="white"/>
<path fill-rule="evenodd" clip-rule="evenodd" d="M52.5311 60.8599H85.1872C85.5613 60.8609 85.9198 61.0098 86.1844 61.2741C86.4491 61.5385 86.5984 61.8967 86.5999 62.2708V65.6606C86.5984 66.0347 86.4491 66.3929 86.1844 66.6573C85.9198 66.9216 85.5613 67.0705 85.1872 67.0715H52.5311C52.1571 67.0705 51.7986 66.9216 51.534 66.6573C51.2693 66.3929 51.1199 66.0347 51.1184 65.6606V62.2708C51.1199 61.8967 51.2693 61.5385 51.534 61.2741C51.7986 61.0098 52.1571 60.8609 52.5311 60.8599Z" fill="#1C2570"/>
<path d="M80.3657 63.0491H57.3546C57.1245 63.0491 56.938 63.2356 56.938 63.4657V64.4656C56.938 64.6957 57.1245 64.8822 57.3546 64.8822H80.3657C80.5958 64.8822 80.7824 64.6957 80.7824 64.4656V63.4657C80.7824 63.2356 80.5958 63.0491 80.3657 63.0491Z" fill="#D1D5F9"/>
<path fill-rule="evenodd" clip-rule="evenodd" d="M121.326 60.2217C129.068 50.6904 134.393 53.3114 142.903 61.3997C126.496 52.6883 131.774 69.6924 115.09 79.1878C106.202 84.2479 97.0989 80.5475 93.798 76.0025C89.9026 70.6526 92.2736 67.2627 87.7551 57.1974C84.0224 48.88 77.9529 48.327 69.5352 49.6678C76.7674 34.5536 94.8415 29.2151 105.163 38.7957C116.099 48.9576 108.571 54.4836 111.183 62.2575C112.565 66.3651 116.311 66.4087 121.326 60.2217Z" fill="#CB5E5B"/>
<path opacity="0.5" fill-rule="evenodd" clip-rule="evenodd" d="M63.4695 55.6918C88.1396 48.6849 86.7401 63.2441 87.1169 76.902C87.454 89.1054 104.375 91.9214 111.471 82.0435C117.531 73.6125 121.977 59.5949 123.212 58.059C120.529 59.9944 102.343 73.478 102.388 62.0492C102.513 33.3302 74.3208 41.6192 63.4695 55.6918Z" fill="url(#paint13_linear_29_474)"/>
<path opacity="0.5" fill-rule="evenodd" clip-rule="evenodd" d="M142.761 61.2444C141.291 58.7288 139.616 56.339 137.752 54.0992C128.145 42.4753 128.094 52.3948 126.719 60.3676C126.142 63.6949 126.395 67.651 124.221 71.2889C129.475 64.3236 130.736 54.3946 142.653 61.4167L142.761 61.2444Z" fill="url(#paint14_linear_29_474)"/>
<path fill-rule="evenodd" clip-rule="evenodd" d="M149.13 126.931C149.142 128.068 144.686 126.867 141.618 123.769L143.89 120.417C145.267 121.635 149.113 125.379 149.13 126.931Z" fill="#1C2570"/>
<path fill-rule="evenodd" clip-rule="evenodd" d="M144.348 116.635C144.254 112.243 136.584 102.892 136.131 102.347C135.584 101.693 134.978 103.242 134.448 105.255C132.689 111.937 134.87 119.515 141.175 123.117L144.348 116.635Z" fill="#1C2570"/>
<path fill-rule="evenodd" clip-rule="evenodd" d="M153.262 115.45C133.242 116.374 133.656 115.65 121.068 130.35C120.5 131.054 119.858 131.98 119.275 132.622L118.72 133.016C118.203 133.618 117.656 134.27 117.063 134.986C116.47 135.701 115.872 135.671 115.51 135.056L112.859 136.192L106.142 136.15C107.863 135.181 110.191 134.376 111.56 133.677C118.59 130.09 119.099 122.86 124.697 115.667C133.397 104.494 139.974 106.704 151.177 105.21C151.725 105.164 152.277 105.227 152.801 105.395C153.325 105.562 153.81 105.832 154.23 106.187C154.65 106.543 154.995 106.977 155.247 107.466C155.498 107.955 155.651 108.489 155.696 109.037C155.887 111.353 155.567 115.258 153.262 115.45Z" fill="url(#paint15_linear_29_474)"/>
<path fill-rule="evenodd" clip-rule="evenodd" d="M153.262 115.45C133.241 116.374 133.656 115.65 121.068 130.35C120.71 130.787 120.33 131.312 119.953 131.798C122.983 123.261 129.043 116.76 135.207 113.364C134.828 111.012 134.427 109.592 134.45 107.64C139.33 105.674 144.409 106.125 151.177 105.219C151.725 105.174 152.277 105.237 152.801 105.404C153.324 105.572 153.81 105.841 154.23 106.197C154.649 106.552 154.995 106.987 155.246 107.476C155.498 107.965 155.651 108.499 155.696 109.047C155.887 111.353 155.567 115.258 153.262 115.45Z" fill="url(#paint16_linear_29_474)"/>
<path fill-rule="evenodd" clip-rule="evenodd" d="M119.582 132.27C117.927 132.986 116.363 133.596 114.899 133.974C113.067 134.434 111.338 134.374 109.13 134.889C107.553 135.268 105.678 136.025 104.756 137.194C107.841 137.453 110.937 137.061 114.035 137.016L114.007 137.499C114.83 137.479 115.652 137.416 116.469 137.309C117.461 137.182 117.73 137.103 118.328 136.209C119.216 134.883 119.311 134.234 119.582 132.27Z" fill="url(#paint17_linear_29_474)"/>
<path fill-rule="evenodd" clip-rule="evenodd" d="M178.605 74.3681C182.144 75.2393 185.068 78.0951 187.381 78.6745C194.213 80.3789 202.9 71.9214 208.983 80.0684C212.088 84.2346 210.049 92.9725 205.152 96.5024C198.959 100.964 190.09 98.1273 185.169 93.283C179.959 88.1491 178.122 92.0104 173.66 90.0182C164.991 86.1455 169.259 72.0691 178.605 74.3681Z" fill="url(#paint18_linear_29_474)"/>
<path fill-rule="evenodd" clip-rule="evenodd" d="M149.219 72.8569C149.232 71.7699 149.111 71.7207 149.613 70.7511C149.901 70.2168 150.08 69.6302 150.138 69.0258C150.282 67.9824 150.327 66.3121 150.073 66.2553C149.884 66.2155 149.672 66.653 149.335 67.3196C149.034 66.7845 148.677 66.283 148.27 65.8235C147.962 65.4447 147.661 65.0395 147.286 64.8766C147.096 64.7971 146.994 64.8368 146.99 65.0224C146.99 65.2951 147.295 65.6758 147.6 66.1587C147.778 66.4352 147.964 66.8651 148.056 67.0109C147.532 67.0847 146.401 67.0639 146.208 67.507C146.047 67.8744 146.632 68.4142 146.877 68.6831C146.462 69.5144 146.327 69.933 146.649 70.8779C146.85 71.465 147.155 72.09 147.155 73.2376L149.219 72.8569Z" fill="url(#paint19_linear_29_474)"/>
<path fill-rule="evenodd" clip-rule="evenodd" d="M145.485 63.9278C148.136 66.2496 150.068 68.0941 152.336 70.4461C153.662 71.821 152.632 73.0122 151.113 71.3684C149.001 69.0864 147.168 66.8802 145.108 64.3047L145.485 63.9278Z" fill="#8C75EA"/>
<path style="mix-blend-mode:multiply" opacity="0.35" fill-rule="evenodd" clip-rule="evenodd" d="M145.485 63.9278L146.04 64.4164C146.032 64.5115 146.002 64.6035 145.953 64.6853C147.979 66.7059 149.929 69.1678 151.844 71.1506C152.033 71.357 152.698 71.7888 152.781 71.0446C153.35 72.1145 152.403 72.7641 151.113 71.3684C149.001 69.0864 147.168 66.8802 145.108 64.3047L145.485 63.9278Z" fill="url(#paint20_linear_29_474)"/>
<path fill-rule="evenodd" clip-rule="evenodd" d="M143.741 64.5148C142.618 63.6077 142.618 62.1931 142.453 60.7159C143.4 61.803 143.835 62.284 145.261 62.3635C146.159 62.534 146.398 63.9713 145.718 64.5868C145.362 64.9144 144.564 65.1814 143.741 64.5148Z" fill="url(#paint21_linear_29_474)"/>
<path fill-rule="evenodd" clip-rule="evenodd" d="M149.804 70.3514C149.978 69.9277 150.09 69.4813 150.138 69.0258C150.282 67.9823 150.327 66.312 150.073 66.2552C149.918 66.2211 149.744 66.5166 149.505 66.9995C149.331 67.3366 149.001 68.5145 148.867 69.1546C148.231 70.4102 149.145 71.1336 149.804 70.3514Z" fill="url(#paint22_linear_29_474)"/>
<path fill-rule="evenodd" clip-rule="evenodd" d="M146.856 68.6774C147.206 68.7777 147.645 69.1016 148.736 68.7115C148.619 69.6697 147.825 69.9064 148.081 71.3892C147.702 70.3647 147.643 69.8458 147.965 69.4235C147.138 69.2171 146.924 68.8497 146.856 68.6774Z" fill="#FF8A79"/>
<path fill-rule="evenodd" clip-rule="evenodd" d="M148.929 119.841C141.165 120.714 140.709 127.59 141.354 135.253C141.474 136.877 141.759 138.484 142.206 140.05L142.608 142.689L141.796 147.437L138.11 153.052C138.231 151.081 138.343 149.001 138.521 147.448C139.523 138.635 131.575 128.549 134.95 118.881C137.01 112.984 143.206 110.639 153.158 107.719C153.68 107.545 154.232 107.475 154.782 107.515C155.331 107.555 155.867 107.704 156.358 107.953C156.85 108.201 157.287 108.545 157.645 108.963C158.003 109.382 158.274 109.867 158.444 110.391C160.091 115.694 157.076 117.69 153.484 118.747C151.967 119.195 150.35 119.686 148.929 119.841Z" fill="url(#paint23_linear_29_474)"/>
<path fill-rule="evenodd" clip-rule="evenodd" d="M148.929 119.841C141.165 120.714 140.709 127.59 141.354 135.253C141.474 136.877 141.759 138.484 142.206 140.05L142.366 141.101C139.146 134.804 137.944 127.782 139.962 121.557C138.055 119.534 137.374 117.769 137.095 115.245C140.144 111.846 145.555 109.942 153.158 107.719C153.681 107.545 154.232 107.475 154.782 107.515C155.331 107.555 155.867 107.704 156.358 107.953C156.85 108.201 157.287 108.545 157.645 108.963C158.003 109.382 158.274 109.867 158.444 110.391C160.097 115.707 157.052 117.637 153.446 118.69C151.939 119.133 150.34 119.686 148.929 119.841Z" fill="url(#paint24_linear_29_474)"/>
<path fill-rule="evenodd" clip-rule="evenodd" d="M149.507 72.5122C150.704 79.3506 154.052 85.9315 163.521 85.1891C164.837 85.0849 168.096 84.8994 169.161 86.3367C170.721 88.4464 169.075 90.9537 167.38 91.7453C163.726 93.4497 156.338 91.8854 152.988 89.8383C148.199 86.9124 146.348 80.9168 146.958 72.8096C147.112 72.1846 149.083 72.2054 149.507 72.5122Z" fill="url(#paint25_linear_29_474)"/>
<path style="mix-blend-mode:multiply" opacity="0.35" fill-rule="evenodd" clip-rule="evenodd" d="M163.417 86.7344C164.729 86.865 166.117 87.0241 166.839 88.6603C167.899 91.0597 166.008 91.6809 164.188 92.0824C160.247 92.9478 153.656 91.0199 150.85 88.1395C147.63 84.8292 146.443 79.0116 146.968 72.8C148.231 86.7022 157.22 90.4878 163.417 86.7344Z" fill="url(#paint26_linear_29_474)"/>
<path fill-rule="evenodd" clip-rule="evenodd" d="M148.657 105.312C148.541 104.625 147.668 100.294 148.496 100.01C149.109 99.7938 150.352 100.921 151.8 103.782L148.657 105.312Z" fill="#5352CF"/>
<path fill-rule="evenodd" clip-rule="evenodd" d="M155.024 100.25C145.392 105.92 138.773 102.116 135.836 102.193C136.385 102.282 136.114 103.28 136.196 104.845C136.747 115.487 141.671 119.427 145.434 122.987C146.886 124.365 148.464 125.021 149.13 126.93C148.78 116.537 153.895 120.881 158.906 116.165C160.343 114.813 161.979 112.332 163.585 110.043L155.024 100.25Z" fill="url(#paint27_linear_29_474)"/>
<path fill-rule="evenodd" clip-rule="evenodd" d="M162.407 113.204C157.838 110.503 153.294 106.909 150.442 102.396C149.6 101.07 148.927 99.9529 148.515 100.01C151.605 99.3469 153.488 98.8734 157.578 94.4269C159.894 91.9063 160.813 88.3479 163.189 86.7155C165.962 84.8217 169.09 85.2762 171.446 86.9938C172.475 87.7513 175.694 89.6072 176.126 90.7094C176.709 92.1922 174.48 94.0538 173.7 96.1843C171.787 101.4 165.64 108.59 162.407 113.204Z" fill="#70C851"/>
<path fill-rule="evenodd" clip-rule="evenodd" d="M171.978 85.5679C171.302 86.8367 171.128 87.1946 170.797 88.5979C169.795 89.6754 167.174 89.2342 167.68 86.9598C168.088 86.5528 168.414 86.0713 168.64 85.5414L170.155 85.1626L171.978 85.5679Z" fill="#FFA698"/>
<path fill-rule="evenodd" clip-rule="evenodd" d="M171.978 85.5678C171.674 86.0695 171.414 86.5974 171.204 87.1453C170.446 87.6547 168.723 87.5373 167.806 86.831C168.164 86.4977 168.464 85.9011 168.64 85.5356L170.155 85.1569L171.978 85.5678Z" fill="url(#paint28_linear_29_474)"/>
<path fill-rule="evenodd" clip-rule="evenodd" d="M169.909 78.5249C168.693 80.4603 167.538 81.9564 167.447 83.8843C167.363 85.5356 168.38 85.903 169.611 85.939C170.842 85.975 171.56 85.939 172.687 85.4504C173.001 85.4504 173.289 85.5792 173.713 85.4504C174.344 85.2459 175.007 84.638 174.931 83.9752C174.897 83.6797 174.457 83.6475 174.003 83.9316C173.435 84.2838 173.524 83.6949 173.713 83.3237C174.228 82.3067 174.281 81.5341 174.645 80.3808C172.939 80.341 170.7 80.2766 169.909 78.5249Z" fill="url(#paint29_linear_29_474)"/>
<path fill-rule="evenodd" clip-rule="evenodd" d="M169.909 78.5249C169.719 78.8279 169.53 79.1214 169.341 79.4055C170.445 80.6402 172.049 81.1099 174.147 80.7804C173.98 81.875 173.418 82.5132 173.264 83.2764C173.139 83.8975 173.244 84.2592 173.628 84.316C174.17 84.3956 174.268 84.0509 174.918 84.1986C174.927 84.1219 174.927 84.0443 174.918 83.9676C174.884 83.6722 174.444 83.64 173.99 83.924C173.422 84.2763 173.511 83.6873 173.7 83.3161C174.215 82.2992 174.268 81.5265 174.632 80.3732C172.939 80.341 170.7 80.2766 169.909 78.5249Z" fill="#FFA698"/>
<path fill-rule="evenodd" clip-rule="evenodd" d="M170.541 79.4737C171.943 80.5418 174.865 80.8448 175.715 79.3771C176.497 78.0287 175.416 76.2675 174.2 75.3093C170.874 72.6826 167.469 77.133 170.541 79.4737Z" fill="#5A2D68"/>
<path fill-rule="evenodd" clip-rule="evenodd" d="M170.541 79.4737C171.831 80.4547 174.404 80.7993 175.465 79.6972L175.476 79.6044C172.103 79.4945 169.871 78.1916 169.572 76.1634C169.111 77.1993 169.282 78.5136 170.541 79.4737Z" fill="#22043D"/>
<path fill-rule="evenodd" clip-rule="evenodd" d="M142.157 139.659C141.856 141.438 141.523 143.091 141.038 144.515C140.428 146.303 139.436 147.719 138.669 149.854C138.12 151.378 137.743 153.365 138.224 154.777C140.118 152.329 141.474 149.518 143.117 146.897L143.507 147.185C143.941 146.484 144.337 145.761 144.695 145.019C145.129 144.115 145.206 143.847 144.782 142.858C144.151 141.387 143.659 140.953 142.157 139.659Z" fill="url(#paint30_linear_29_474)"/>
<path fill-rule="evenodd" clip-rule="evenodd" d="M176.12 90.5598C184.581 99.1764 189.53 96.2411 198.466 90.6696C199.953 90.3875 201.254 92.7793 200.216 94.0292C190.31 105.96 180.195 104.077 170.776 96.4286C169.39 95.0272 169.467 92.1127 170.869 90.7283C172.27 89.344 174.73 89.1584 176.12 90.5598Z" fill="url(#paint31_linear_29_474)"/>
<path style="mix-blend-mode:multiply" opacity="0.35" fill-rule="evenodd" clip-rule="evenodd" d="M162.407 113.204C164.025 110.217 170.389 96.5005 171.85 94.0254C172.304 94.8757 179.273 98.7901 181.561 99.415C189.666 101.631 196.317 97.099 200.226 94.0292C191.054 105.083 181.705 104.282 172.893 98.0326C170.425 103.002 165.261 109.115 162.407 113.204Z" fill="url(#paint32_linear_29_474)"/>
<path fill-rule="evenodd" clip-rule="evenodd" d="M195.45 87.5714L204.651 97.7182C204.85 97.9368 204.953 98.2251 204.939 98.5198C204.925 98.8145 204.794 99.0916 204.576 99.2901L197.535 105.68C197.316 105.877 197.028 105.98 196.733 105.965C196.439 105.951 196.162 105.821 195.963 105.604L186.752 95.4533C186.554 95.2342 186.451 94.9459 186.466 94.6514C186.481 94.3568 186.611 94.08 186.829 93.8815L193.878 87.4919C194.097 87.2951 194.386 87.1931 194.68 87.208C194.975 87.2229 195.251 87.3535 195.45 87.5714Z" fill="#273087"/>
<path fill-rule="evenodd" clip-rule="evenodd" d="M195.353 88.3592L203.875 97.7409C204.052 97.9374 204.145 98.1961 204.132 98.4604C204.119 98.7248 204.002 98.9733 203.807 99.1518L197.486 104.888C197.289 105.065 197.03 105.158 196.766 105.145C196.502 105.132 196.253 105.015 196.075 104.82L187.553 95.4381C187.375 95.2416 187.283 94.983 187.296 94.7186C187.309 94.4543 187.426 94.2057 187.621 94.0273L193.942 88.2892C194.139 88.1121 194.398 88.0201 194.662 88.0332C194.927 88.0463 195.175 88.1636 195.353 88.3592Z" fill="#DBE9FF"/>
<path fill-rule="evenodd" clip-rule="evenodd" d="M201.517 94.3303C202.407 93.3095 201.214 91.287 200.118 90.4689C199.529 90.0295 198.917 90.27 197.968 91.0559C197.52 91.4347 196.965 92.1922 197.116 92.3986C197.393 92.7774 198.389 91.4839 199.319 91.5351C198.911 91.8764 198.549 92.2699 198.243 92.7054C197.974 93.0842 197.961 93.3152 198.499 93.8587C198.878 94.2375 199.332 94.5859 199.713 94.156C200.319 93.4724 200.747 93.6864 201.517 94.3303Z" fill="url(#paint33_linear_29_474)"/>
<path fill-rule="evenodd" clip-rule="evenodd" d="M198.374 98.9492C200.521 98.3015 201.142 99.1613 201.612 101.138L201.538 101.203C199.949 98.5003 198.904 101.581 195.327 101.301C193.361 101.146 192.31 99.5722 192.274 98.489C192.23 97.2145 192.976 96.9304 193.344 94.834C193.649 93.105 192.74 92.3589 191.251 91.6638C194.041 90.0333 197.501 91.1355 198.112 93.783C198.758 96.5857 196.959 96.6539 196.535 98.1765C196.319 98.9794 196.904 99.3923 198.374 98.9492Z" fill="url(#paint34_linear_29_474)"/>
<path opacity="0.5" fill-rule="evenodd" clip-rule="evenodd" d="M189.82 92.037C194.278 93.5842 192.509 95.726 191.111 97.9076C190.901 98.2275 190.78 98.5975 190.761 98.9795L193.045 101.491C193.513 101.571 193.994 101.526 194.44 101.362C196.319 100.671 198.546 98.917 198.908 98.8034C198.27 98.8242 193.91 99.0098 195.154 97.1899C198.162 92.7926 193.283 91.0295 190.011 91.8552L189.82 92.037Z" fill="url(#paint35_linear_29_474)"/>
<path opacity="0.5" fill-rule="evenodd" clip-rule="evenodd" d="M201.699 101.057C201.712 100.62 201.698 100.182 201.656 99.7465C201.381 96.8528 200.3 98.4208 199.217 99.5571C198.766 100.027 198.378 100.684 197.637 101.03C199.175 100.506 200.417 99.1367 201.531 101.22L201.699 101.057Z" fill="url(#paint36_linear_29_474)"/>
<defs>
<linearGradient id="paint0_linear_29_474" x1="325498" y1="7661.05" x2="326103" y2="10875.5" gradientUnits="userSpaceOnUse">
<stop stop-color="#CB5E5B"/>
<stop offset="1" stop-color="#5E65D6"/>
</linearGradient>
<linearGradient id="paint1_linear_29_474" x1="257345" y1="3147.45" x2="257719" y2="5132.05" gradientUnits="userSpaceOnUse">
<stop stop-color="#CB5E5B"/>
<stop offset="1" stop-color="#5E65D6"/>
</linearGradient>
<linearGradient id="paint2_linear_29_474" x1="78008.5" y1="7050.15" x2="78048.3" y2="11092.8" gradientUnits="userSpaceOnUse">
<stop stop-color="#70C851"/>
<stop offset="1" stop-color="#00CFDD"/>
</linearGradient>
<linearGradient id="paint3_linear_29_474" x1="29761.1" y1="3741.66" x2="29733.6" y2="1168.23" gradientUnits="userSpaceOnUse">
<stop stop-color="#1C8EF4"/>
<stop offset="1" stop-color="#00CFDD"/>
</linearGradient>
<linearGradient id="paint4_linear_29_474" x1="137.129" y1="-2.41076" x2="138.093" y2="28.1451" gradientUnits="userSpaceOnUse">
<stop stop-color="#FD90DA"/>
<stop offset="1" stop-color="#8E6DFD"/>
</linearGradient>
<linearGradient id="paint5_linear_29_474" x1="40682.3" y1="2542.58" x2="40805.4" y2="5598.85" gradientUnits="userSpaceOnUse">
<stop stop-color="#FD90DA"/>
<stop offset="1" stop-color="#8E6DFD"/>
</linearGradient>
<linearGradient id="paint6_linear_29_474" x1="99698.7" y1="-32358.3" x2="111450" y2="-16835.4" gradientUnits="userSpaceOnUse">
<stop stop-color="#FD90DA"/>
<stop offset="1" stop-color="#8E6DFD"/>
</linearGradient>
<linearGradient id="paint7_linear_29_474" x1="33156.8" y1="29534.9" x2="39174" y2="37482.6" gradientUnits="userSpaceOnUse">
<stop stop-color="#FD90DA"/>
<stop offset="1" stop-color="#8E6DFD"/>
</linearGradient>
<linearGradient id="paint8_linear_29_474" x1="22440" y1="45006.5" x2="24750.7" y2="44662.9" gradientUnits="userSpaceOnUse">
<stop stop-color="#CB5E5B"/>
<stop offset="1" stop-color="#FF8ADC"/>
</linearGradient>
<linearGradient id="paint9_linear_29_474" x1="56512.9" y1="3859.98" x2="56368.4" y2="5753.76" gradientUnits="userSpaceOnUse">
<stop stop-color="#FD90DA"/>
<stop offset="1" stop-color="#8E6DFD"/>
</linearGradient>
<linearGradient id="paint10_linear_29_474" x1="36360.3" y1="14827.1" x2="36434.9" y2="16159.7" gradientUnits="userSpaceOnUse">
<stop stop-color="#FD90DA"/>
<stop offset="1" stop-color="#8E6DFD"/>
</linearGradient>
<linearGradient id="paint11_linear_29_474" x1="39958.2" y1="12724.3" x2="39391.6" y2="11820.6" gradientUnits="userSpaceOnUse">
<stop stop-color="#6D6AFE"/>
<stop offset="1" stop-color="#3FB0F7"/>
</linearGradient>
<linearGradient id="paint12_linear_29_474" x1="50154.7" y1="16535.7" x2="56442.9" y2="24843.7" gradientUnits="userSpaceOnUse">
<stop stop-color="#FD90DA"/>
<stop offset="1" stop-color="#8E6DFD"/>
</linearGradient>
<linearGradient id="paint13_linear_29_474" x1="133187" y1="16212.3" x2="129723" y2="20835.2" gradientUnits="userSpaceOnUse">
<stop stop-color="#965CF2"/>
<stop offset="1" stop-color="#F3A4A3"/>
</linearGradient>
<linearGradient id="paint14_linear_29_474" x1="44928.4" y1="7660.1" x2="44207.3" y2="10063.7" gradientUnits="userSpaceOnUse">
<stop stop-color="#965CF2"/>
<stop offset="1" stop-color="#FF8ADC"/>
</linearGradient>
<linearGradient id="paint15_linear_29_474" x1="117469" y1="21739.8" x2="118348" y2="22519.9" gradientUnits="userSpaceOnUse">
<stop stop-color="#FFB89E"/>
<stop offset="1" stop-color="#FFA799"/>
</linearGradient>
<linearGradient id="paint16_linear_29_474" x1="87165.8" y1="18767.7" x2="85931.4" y2="17956.2" gradientUnits="userSpaceOnUse">
<stop stop-color="#FF8A78"/>
<stop offset="1" stop-color="#FFA799"/>
</linearGradient>
<linearGradient id="paint17_linear_29_474" x1="33941.2" y1="4181.46" x2="33996.8" y2="4324.14" gradientUnits="userSpaceOnUse">
<stop stop-color="#3E4795"/>
<stop offset="1" stop-color="#273088"/>
</linearGradient>
<linearGradient id="paint18_linear_29_474" x1="112225" y1="12195.5" x2="112119" y2="13157.5" gradientUnits="userSpaceOnUse">
<stop stop-color="#5A2D68"/>
<stop offset="1" stop-color="#22043D"/>
</linearGradient>
<linearGradient id="paint19_linear_29_474" x1="10246.9" y1="3647.27" x2="10143.9" y2="3725.4" gradientUnits="userSpaceOnUse">
<stop stop-color="#FFB89E"/>
<stop offset="1" stop-color="#FFA799"/>
</linearGradient>
<linearGradient id="paint20_linear_29_474" x1="19534.4" y1="3471.46" x2="19704.4" y2="3679.08" gradientUnits="userSpaceOnUse">
<stop stop-color="#A77EF7"/>
<stop offset="1" stop-color="#5E65D6"/>
</linearGradient>
<linearGradient id="paint21_linear_29_474" x1="9110.13" y1="1756.48" x2="9121.54" y2="1739.62" gradientUnits="userSpaceOnUse">
<stop stop-color="#FF66BC"/>
<stop offset="0.56" stop-color="#FF8ADC"/>
<stop offset="1" stop-color="#FFBBA8"/>
</linearGradient>
<linearGradient id="paint22_linear_29_474" x1="4130.85" y1="1964.68" x2="4151.25" y2="1974.48" gradientUnits="userSpaceOnUse">
<stop stop-color="#FFB89E"/>
<stop offset="1" stop-color="#FFA799"/>
</linearGradient>
<linearGradient id="paint23_linear_29_474" x1="59969.9" y1="34896.9" x2="60935.9" y2="34808.8" gradientUnits="userSpaceOnUse">
<stop stop-color="#FFB89E"/>
<stop offset="1" stop-color="#FFA799"/>
</linearGradient>
<linearGradient id="paint24_linear_29_474" x1="54166.1" y1="24409" x2="53058.1" y2="24551.7" gradientUnits="userSpaceOnUse">
<stop stop-color="#FF8A78"/>
<stop offset="1" stop-color="#FFA799"/>
</linearGradient>
<linearGradient id="paint25_linear_29_474" x1="58023.1" y1="10308.9" x2="57682.3" y2="10964.8" gradientUnits="userSpaceOnUse">
<stop stop-color="#70C851"/>
<stop offset="1" stop-color="#70C851"/>
</linearGradient>
<linearGradient id="paint26_linear_29_474" x1="51642" y1="10050" x2="50122.3" y2="9613.78" gradientUnits="userSpaceOnUse">
<stop stop-color="#A77EF7"/>
<stop offset="1" stop-color="#5E65D6"/>
</linearGradient>
<linearGradient id="paint27_linear_29_474" x1="68134.6" y1="16565.7" x2="69127.8" y2="17683.8" gradientUnits="userSpaceOnUse">
<stop stop-color="#3E4795"/>
<stop offset="1" stop-color="#273088"/>
</linearGradient>
<linearGradient id="paint28_linear_29_474" x1="10979.6" y1="1285.23" x2="10978.9" y2="1298.67" gradientUnits="userSpaceOnUse">
<stop stop-color="#FF8A78"/>
<stop offset="1" stop-color="#FFA799"/>
</linearGradient>
<linearGradient id="paint29_linear_29_474" x1="19657.2" y1="3776.51" x2="19626.8" y2="3949.22" gradientUnits="userSpaceOnUse">
<stop stop-color="#FFB89E"/>
<stop offset="1" stop-color="#FFA799"/>
</linearGradient>
<linearGradient id="paint30_linear_29_474" x1="17221.6" y1="12964.8" x2="17426.7" y2="12939.2" gradientUnits="userSpaceOnUse">
<stop stop-color="#3E4795"/>
<stop offset="1" stop-color="#273088"/>
</linearGradient>
<linearGradient id="paint31_linear_29_474" x1="82518.6" y1="7160.67" x2="82511.3" y2="8348.55" gradientUnits="userSpaceOnUse">
<stop stop-color="#70C851"/>
<stop offset="1" stop-color="#5E65D6"/>
</linearGradient>
<linearGradient id="paint32_linear_29_474" x1="99470.7" y1="11565.4" x2="100699" y2="13064.3" gradientUnits="userSpaceOnUse">
<stop stop-color="#A77EF7"/>
<stop offset="1" stop-color="#5E65D6"/>
</linearGradient>
<linearGradient id="paint33_linear_29_474" x1="13219.9" y1="2349.07" x2="13212.3" y2="2403.29" gradientUnits="userSpaceOnUse">
<stop stop-color="#FFB89E"/>
<stop offset="1" stop-color="#FFA799"/>
</linearGradient>
<linearGradient id="paint34_linear_29_474" x1="28503.8" y1="6085.73" x2="28338.1" y2="6204.03" gradientUnits="userSpaceOnUse">
<stop stop-color="#1C8EF4"/>
<stop offset="1" stop-color="#00CFDD"/>
</linearGradient>
<linearGradient id="paint35_linear_29_474" x1="24972.5" y1="5756.75" x2="24719.5" y2="5800.99" gradientUnits="userSpaceOnUse">
<stop stop-color="#965CF2"/>
<stop offset="1" stop-color="#FF8ADC"/>
</linearGradient>
<linearGradient id="paint36_linear_29_474" x1="11420.6" y1="1939.59" x2="11371.8" y2="1998.24" gradientUnits="userSpaceOnUse">
<stop stop-color="#965CF2"/>
<stop offset="1" stop-color="#FF8ADC"/>
</linearGradient>
</defs>
</svg>
