<svg width="223" height="164" viewBox="0 0 223 164" fill="none" xmlns="http://www.w3.org/2000/svg">
<path opacity="0.1" d="M108.685 164C153.973 164 190.685 127.287 190.685 82C190.685 36.7126 153.973 0 108.685 0C63.3979 0 26.6853 36.7126 26.6853 82C26.6853 127.287 63.3979 164 108.685 164Z" fill="#B087FA"/>
<path opacity="0.5" fill-rule="evenodd" clip-rule="evenodd" d="M37.1554 30.9335C36.1458 30.9335 35.1589 31.2329 34.3194 31.7938C33.48 32.3547 32.8257 33.1519 32.4394 34.0847C32.053 35.0174 31.9519 36.0438 32.1489 37.034C32.3458 38.0242 32.832 38.9337 33.5459 39.6476C34.2598 40.3615 35.1693 40.8477 36.1595 41.0446C37.1497 41.2416 38.1761 41.1405 39.1088 40.7541C40.0416 40.3678 40.8388 39.7135 41.3997 38.8741C41.9606 38.0346 42.26 37.0477 42.26 36.0381C42.2594 34.6845 41.7215 33.3864 40.7643 32.4292C39.8071 31.472 38.509 30.9341 37.1554 30.9335Z" fill="url(#paint0_linear_29_473)"/>
<path opacity="0.5" fill-rule="evenodd" clip-rule="evenodd" d="M170.709 17.4993C169.759 17.4993 168.831 17.781 168.041 18.3087C167.251 18.8364 166.636 19.5865 166.272 20.4641C165.909 21.3416 165.813 22.3073 165.999 23.2389C166.184 24.1705 166.642 25.0263 167.313 25.6979C167.985 26.3696 168.841 26.827 169.772 27.0123C170.704 27.1976 171.669 27.1025 172.547 26.739C173.425 26.3755 174.175 25.7599 174.702 24.9702C175.23 24.1804 175.512 23.2518 175.512 22.302C175.512 21.0282 175.006 19.8067 174.105 18.906C173.204 18.0053 171.983 17.4993 170.709 17.4993Z" fill="url(#paint1_linear_29_473)"/>
<path opacity="0.5" fill-rule="evenodd" clip-rule="evenodd" d="M197.536 74.0237C196.028 74.0237 194.555 74.4708 193.301 75.3084C192.047 76.146 191.07 77.3365 190.493 78.7295C189.916 80.1224 189.765 81.6551 190.06 83.1338C190.354 84.6125 191.08 85.9708 192.146 87.0369C193.212 88.103 194.57 88.8291 196.049 89.1232C197.528 89.4173 199.06 89.2664 200.453 88.6894C201.846 88.1124 203.037 87.1354 203.874 85.8818C204.712 84.6282 205.159 83.1544 205.159 81.6467C205.159 80.6455 204.962 79.6541 204.579 78.7291C204.196 77.8042 203.635 76.9637 202.927 76.2558C202.219 75.5479 201.379 74.9864 200.454 74.6034C199.529 74.2204 198.537 74.0234 197.536 74.0237Z" fill="url(#paint2_linear_29_473)"/>
<path opacity="0.5" fill-rule="evenodd" clip-rule="evenodd" d="M5.82766 120.926C4.67529 120.926 3.54868 121.267 2.59035 121.907C1.63202 122.547 0.885018 123.457 0.443837 124.522C0.00265699 125.586 -0.112875 126.758 0.111842 127.888C0.336558 129.018 0.891425 130.056 1.70627 130.871C2.52112 131.686 3.55935 132.241 4.68959 132.466C5.81984 132.69 6.99134 132.575 8.05591 132.134C9.12049 131.693 10.0303 130.946 10.6703 129.987C11.3102 129.029 11.6516 127.902 11.6512 126.75C11.6507 125.206 11.0369 123.725 9.94493 122.633C8.85292 121.541 7.37199 120.927 5.82766 120.926Z" fill="#F9D6E0"/>
<path opacity="0.5" fill-rule="evenodd" clip-rule="evenodd" d="M216.835 135.392C215.733 135.392 214.657 135.718 213.741 136.33C212.825 136.942 212.111 137.812 211.69 138.83C211.268 139.848 211.158 140.967 211.373 142.048C211.588 143.128 212.119 144.12 212.898 144.899C213.677 145.678 214.669 146.208 215.75 146.423C216.83 146.637 217.95 146.527 218.967 146.105C219.985 145.683 220.855 144.969 221.466 144.053C222.078 143.137 222.404 142.06 222.404 140.958C222.404 140.227 222.26 139.503 221.98 138.828C221.7 138.152 221.29 137.538 220.773 137.021C220.255 136.505 219.642 136.095 218.966 135.815C218.29 135.535 217.566 135.391 216.835 135.392Z" fill="url(#paint3_linear_29_473)"/>
<path opacity="0.5" d="M110.275 17.4884C113.989 16.7732 116.42 13.1825 115.705 9.4684C114.99 5.75428 111.399 3.32318 107.685 4.03841C103.971 4.75364 101.54 8.34434 102.255 12.0585C102.97 15.7726 106.561 18.2037 110.275 17.4884Z" fill="url(#paint4_linear_29_473)"/>
<g style="mix-blend-mode:multiply" opacity="0.35">
<path d="M108.603 157.207C157.608 157.207 197.335 155.121 197.335 152.548C197.335 149.975 157.608 147.889 108.603 147.889C59.598 147.889 19.8716 149.975 19.8716 152.548C19.8716 155.121 59.598 157.207 108.603 157.207Z" fill="#955CF1"/>
</g>
<g style="mix-blend-mode:multiply" opacity="0.35">
<path fill-rule="evenodd" clip-rule="evenodd" d="M108.604 150.081C148.401 150.081 180.662 151.186 180.662 152.546C180.662 153.906 148.411 155.011 108.604 155.011C68.7961 155.011 36.5437 153.908 36.5437 152.546C36.5437 151.184 68.8064 150.081 108.604 150.081Z" fill="#955CF1"/>
</g>
<path d="M44.8823 55.2703L44.8823 124.21C44.8823 128.106 48.0405 131.264 51.9363 131.264L161.9 131.264C165.795 131.264 168.954 128.106 168.954 124.21L168.954 55.2703C168.954 51.3745 165.795 48.2163 161.9 48.2163L51.9363 48.2163C48.0405 48.2163 44.8823 51.3745 44.8823 55.2703Z" fill="#303A7D"/>
<path d="M47.9556 57.5709L47.9556 121.907C47.9556 125.476 50.8489 128.37 54.4179 128.37L159.418 128.37C162.987 128.37 165.881 125.476 165.881 121.907L165.881 57.5709C165.881 54.0019 162.987 51.1086 159.418 51.1086L54.4179 51.1086C50.8489 51.1086 47.9556 54.0019 47.9556 57.5709Z" fill="#D1B1FF"/>
<path fill-rule="evenodd" clip-rule="evenodd" d="M106.919 38.5648C108.154 38.5648 109.361 38.9311 110.388 39.6172C111.415 40.3034 112.215 41.2787 112.688 42.4197C113.161 43.5608 113.284 44.8164 113.043 46.0277C112.802 47.2391 112.208 48.3518 111.334 49.2251C110.461 50.0984 109.348 50.6932 108.137 50.9341C106.926 51.1751 105.67 51.0514 104.529 50.5787C103.388 50.1061 102.413 49.3057 101.726 48.2788C101.04 47.2519 100.674 46.0445 100.674 44.8094C100.674 43.1533 101.332 41.5649 102.503 40.3938C103.674 39.2227 105.263 38.5648 106.919 38.5648ZM106.919 40.1835C106.003 40.1835 105.108 40.455 104.347 40.9636C103.586 41.4722 102.993 42.1951 102.643 43.0409C102.293 43.8867 102.201 44.8173 102.38 45.7151C102.559 46.6129 102.999 47.4376 103.647 48.0847C104.294 48.7319 105.119 49.1725 106.017 49.3509C106.915 49.5292 107.846 49.4372 108.691 49.0866C109.537 48.736 110.26 48.1426 110.768 47.3812C111.276 46.6199 111.547 45.7249 111.547 44.8094C111.547 44.2018 111.427 43.6001 111.194 43.0387C110.962 42.4773 110.621 41.9673 110.191 41.5377C109.761 41.1081 109.251 40.7674 108.69 40.535C108.128 40.3027 107.526 40.1832 106.919 40.1835Z" fill="white"/>
<path fill-rule="evenodd" clip-rule="evenodd" d="M101.638 52.9357H112.202C112.332 52.9467 112.452 53.0082 112.537 53.1069C112.622 53.2056 112.665 53.3337 112.656 53.4636V54.3777C112.665 54.5078 112.622 54.6361 112.537 54.7352C112.452 54.8342 112.332 54.8961 112.202 54.9077H101.638C101.507 54.8966 101.387 54.8349 101.301 54.7358C101.216 54.6367 101.173 54.5082 101.182 54.3777V53.4636C101.173 53.3333 101.216 53.205 101.302 53.1062C101.387 53.0074 101.508 52.9462 101.638 52.9357Z" fill="white"/>
<path opacity="0.5" d="M116.695 56.9988H97.1432C96.8516 56.9988 96.6152 57.2351 96.6152 57.5267V58.4428C96.6152 58.7344 96.8516 58.9708 97.1432 58.9708H116.695C116.986 58.9708 117.223 58.7344 117.223 58.4428V57.5267C117.223 57.2351 116.986 56.9988 116.695 56.9988Z" fill="white"/>
<path fill-rule="evenodd" clip-rule="evenodd" d="M45.2102 72.5878C50.0621 71.536 54.0431 66.5835 56.1137 60.9058C56.8963 58.7694 56.8902 58.2353 56.7155 56.5571C56.5307 54.7659 56.5553 54.1291 57.1551 52.9377C57.7919 51.6764 58.2726 51.8839 58.0117 53.0671C57.9111 53.5293 57.6522 53.7347 57.9994 54.7515C58.9998 52.4919 59.7064 48.8417 62.2145 49.2669C62.0995 49.4723 61.7873 49.9838 61.4504 51.5408C61.1135 53.0979 60.8218 55.6718 60.7684 55.8155C60.3329 56.9987 59.7742 57.9087 59.4928 59.6794C57.7817 70.4103 56.4341 74.8802 47.2829 79.2966L44.5549 75.632L45.2102 72.5878Z" fill="url(#paint5_linear_29_473)"/>
<path fill-rule="evenodd" clip-rule="evenodd" d="M45.2102 72.5878C45.7113 72.4778 46.2031 72.3287 46.681 72.142C47.6912 73.3489 48.4968 74.7131 49.0659 76.1805C54.5915 72.6227 57.186 67.2613 59.4928 59.6794C57.7817 70.4104 56.4341 74.8802 47.2829 79.2967L44.5549 75.6321L45.2102 72.5878Z" fill="url(#paint6_linear_29_473)"/>
<path fill-rule="evenodd" clip-rule="evenodd" d="M50.3269 69.5744C53.4534 66.7437 55.8526 62.5902 56.6147 59.0406C56.8201 58.6298 59.1865 58.6996 59.7514 59.5809C58.6114 66.7355 57.4364 71.1437 54.1641 74.6029C51.7957 77.1049 47.5004 79.7383 43.731 80.6093C40.773 81.2913 38.7271 80.6319 38.078 77.9656C37.8582 77.0659 38.3183 74.6789 40.543 73.7279C44.5938 71.9942 46.385 73.1424 50.3269 69.5744Z" fill="#70C851"/>
<path style="mix-blend-mode:multiply" opacity="0.5" fill-rule="evenodd" clip-rule="evenodd" d="M59.7513 59.5808C58.6113 66.7355 57.4363 71.1437 54.164 74.6029C51.7956 77.1049 47.5003 79.7383 43.7309 80.6092C40.7729 81.2912 38.727 80.6318 38.0779 77.9655C48.2809 79.4178 56.1545 72.7418 59.7513 59.5808Z" fill="url(#paint7_linear_29_473)"/>
<g style="mix-blend-mode:multiply" opacity="0.35">
<path fill-rule="evenodd" clip-rule="evenodd" d="M65.5275 27.5195L83.1932 27.6818H97.0321L97.0095 61.37C97.0004 62.5586 96.5233 63.6957 95.6816 64.5351C94.84 65.3744 93.7016 65.8484 92.513 65.8543L65.3857 65.8317L65.5275 27.5195Z" fill="#F95DB0"/>
</g>
<path d="M89.5408 17.7787H54.6796C52.397 17.7787 50.5466 19.6291 50.5466 21.9117V57.8533C50.5466 60.1359 52.397 61.9863 54.6796 61.9863H89.5408C91.8233 61.9863 93.6737 60.1359 93.6737 57.8533V21.9117C93.6737 19.6291 91.8233 17.7787 89.5408 17.7787Z" fill="url(#paint8_linear_29_473)"/>
<path fill-rule="evenodd" clip-rule="evenodd" d="M93.6737 50.522V57.8533C93.6699 58.9483 93.2333 59.9973 92.459 60.7716C91.6848 61.5459 90.6357 61.9825 89.5408 61.9863H54.6817C53.5865 61.9825 52.5373 61.5459 51.7627 60.7717C50.9881 59.9975 50.551 58.9485 50.5466 57.8533V50.522H93.6737Z" fill="white"/>
<path opacity="0.35" d="M61.8901 52.5968H56.122C55.7442 52.5968 55.438 52.903 55.438 53.2808V59.2276C55.438 59.6054 55.7442 59.9117 56.122 59.9117H61.8901C62.2679 59.9117 62.5741 59.6054 62.5741 59.2276V53.2808C62.5741 52.903 62.2679 52.5968 61.8901 52.5968Z" fill="#03C8DE"/>
<path d="M58.3506 54.0264H56.886V58.4819H58.3506V54.0264Z" fill="#03C8DE"/>
<path d="M61.1255 54.0264H59.6609V58.4819H61.1255V54.0264Z" fill="#03C8DE"/>
<path opacity="0.35" d="M74.9953 52.5968H69.2272C68.8495 52.5968 68.5432 52.903 68.5432 53.2808V59.2276C68.5432 59.6054 68.8495 59.9117 69.2272 59.9117H74.9953C75.3731 59.9117 75.6794 59.6054 75.6794 59.2276V53.2808C75.6794 52.903 75.3731 52.5968 74.9953 52.5968Z" fill="#03C8DE"/>
<path fill-rule="evenodd" clip-rule="evenodd" d="M70.1804 53.8704L74.0402 56.2532L70.1804 58.6381V53.8704Z" fill="#03C8DE"/>
<path opacity="0.35" d="M88.1008 52.5968H82.3327C81.9549 52.5968 81.6487 52.903 81.6487 53.2808V59.2276C81.6487 59.6054 81.9549 59.9117 82.3327 59.9117H88.1008C88.4786 59.9117 88.7848 59.6054 88.7848 59.2276V53.2808C88.7848 52.903 88.4786 52.5968 88.1008 52.5968Z" fill="#03C8DE"/>
<path fill-rule="evenodd" clip-rule="evenodd" d="M84.0811 54.0286L87.6923 56.2573L84.0811 58.4861V54.0286Z" fill="#03C8DE"/>
<path d="M83.5695 54.0203H82.7417V58.4758H83.5695V54.0203Z" fill="#03C8DE"/>
<path fill-rule="evenodd" clip-rule="evenodd" d="M67.4522 39.5713H76.7802C76.8965 39.5787 77.0051 39.632 77.0821 39.7194C77.1591 39.8068 77.1983 39.9213 77.191 40.0376V40.8449C77.1983 40.9612 77.1591 41.0756 77.0821 41.1631C77.0051 41.2505 76.8965 41.3038 76.7802 41.3112H67.4522C67.3359 41.3038 67.2273 41.2505 67.1503 41.1631C67.0733 41.0756 67.0341 40.9612 67.0414 40.8449V40.0376C67.0341 39.9213 67.0733 39.8068 67.1503 39.7194C67.2273 39.632 67.3359 39.5787 67.4522 39.5713Z" fill="white"/>
<path opacity="0.5" d="M80.7429 43.158H63.4797C63.2222 43.158 63.0134 43.3667 63.0134 43.6243V44.4315C63.0134 44.6891 63.2222 44.8978 63.4797 44.8978H80.7429C81.0004 44.8978 81.2092 44.6891 81.2092 44.4315V43.6243C81.2092 43.3667 81.0004 43.158 80.7429 43.158Z" fill="white"/>
<path opacity="0.5" fill-rule="evenodd" clip-rule="evenodd" d="M77.8628 25.9215C77.9963 26.4761 78.0148 27.1314 78.2181 27.7292C78.6762 29.0829 79.2041 29.1014 79.1404 30.3996C79.0377 32.4312 78.177 32.2072 77.4971 33.5938C76.8685 34.89 77.2588 37.3201 71.9078 36.5107C71.0183 36.3772 69.3688 36.8579 68.1815 36.7161C65.8131 36.4286 66.5382 33.5178 66.2075 32.4763C65.8131 31.211 64.484 30.6276 64.6915 28.9452C64.9462 26.8911 66.5403 27.38 67.2551 25.6216C68.1939 23.2943 70.1535 22.1912 72.1255 23.0026C73.9003 23.7318 75.2068 22.8218 76.355 23.6024C76.8583 23.9475 77.5444 24.6294 77.8545 25.9195L77.8628 25.9215ZM72.1235 24.4836C71.0671 24.4836 70.0346 24.7968 69.1563 25.3837C68.278 25.9706 67.5934 26.8047 67.1892 27.7806C66.785 28.7565 66.6792 29.8303 66.8853 30.8664C67.0913 31.9024 67.6 32.854 68.3469 33.6009C69.0939 34.3479 70.0455 34.8565 71.0815 35.0626C72.1175 35.2687 73.1914 35.1629 74.1673 34.7587C75.1432 34.3545 75.9773 33.6699 76.5642 32.7916C77.151 31.9133 77.4643 30.8807 77.4643 29.8244C77.4643 28.4079 76.9016 27.0495 75.9 26.0479C74.8984 25.0463 73.5399 24.4836 72.1235 24.4836Z" fill="white"/>
<path opacity="0.5" fill-rule="evenodd" clip-rule="evenodd" d="M68.4919 22.7066C69.1081 22.6327 69.8394 22.7066 70.5213 22.5526C72.0661 22.226 72.1544 21.6487 73.578 21.8891C75.7923 22.265 75.4267 23.1791 76.8646 24.0973C78.206 24.9559 80.9216 24.845 79.3296 30.609C79.0667 31.5683 79.381 33.4396 79.0667 34.7173C78.4504 37.2788 75.3425 36.1121 74.1572 36.3319C72.7193 36.601 71.91 37.9752 70.0879 37.5356C67.8674 36.9892 68.611 35.2986 66.7725 34.29C64.3424 32.959 63.3873 30.6644 64.5335 28.6062C65.5606 26.7574 64.7389 25.1942 65.7413 24.0439C66.1871 23.5365 67.017 22.873 68.4795 22.7005L68.4919 22.7066ZM66.1768 28.8178C66.0399 29.9768 66.2498 31.1503 66.7798 32.1901C67.3098 33.2299 68.1362 34.0891 69.1545 34.6593C70.1728 35.2295 71.3373 35.4849 72.5008 35.3933C73.6642 35.3018 74.7744 34.8673 75.691 34.1448C76.6076 33.4224 77.2894 32.4444 77.6502 31.3345C78.011 30.2246 78.0346 29.0326 77.7181 27.9093C77.4016 26.786 76.7591 25.7818 75.8719 25.0235C74.9847 24.2653 73.8926 23.7871 72.7337 23.6495C71.9638 23.558 71.1834 23.6192 70.4371 23.8295C69.6908 24.0398 68.9933 24.3951 68.3844 24.875C67.7754 25.355 67.2671 25.9502 66.8883 26.6267C66.5095 27.3033 66.2678 28.0478 66.1768 28.8178Z" fill="white"/>
<path fill-rule="evenodd" clip-rule="evenodd" d="M72.1338 23.5304C73.38 23.53 74.5983 23.8992 75.6347 24.5913C76.671 25.2834 77.4789 26.2673 77.956 27.4186C78.4331 28.5699 78.558 29.8368 78.3149 31.0591C78.0719 32.2814 77.4719 33.4041 76.5907 34.2853C75.7095 35.1666 74.5867 35.7666 73.3644 36.0097C72.1421 36.2527 70.8752 36.1278 69.7239 35.6507C68.5727 35.1736 67.5887 34.3657 66.8966 33.3294C66.2045 32.293 65.8353 31.0747 65.8357 29.8285C65.8362 28.1583 66.5 26.5567 67.681 25.3757C68.8619 24.1947 70.4636 23.5309 72.1338 23.5304ZM72.1338 25.1614C71.2102 25.1614 70.3074 25.4353 69.5395 25.9484C68.7717 26.4616 68.1732 27.1909 67.8199 28.0442C67.4665 28.8975 67.3742 29.8364 67.5545 30.7422C67.7348 31.6479 68.1797 32.4799 68.8329 33.1328C69.4861 33.7857 70.3183 34.2302 71.2241 34.4101C72.13 34.5901 73.0688 34.4973 73.922 34.1436C74.7751 33.7899 75.5041 33.1911 76.017 32.423C76.5298 31.6549 76.8033 30.752 76.8029 29.8285C76.8029 29.2154 76.6821 28.6083 76.4474 28.042C76.2127 27.4756 75.8687 26.961 75.4352 26.5276C75.0016 26.0942 74.4868 25.7505 73.9204 25.5161C73.3539 25.2817 72.7468 25.1611 72.1338 25.1614Z" fill="white"/>
<path fill-rule="evenodd" clip-rule="evenodd" d="M72.1318 26.1412C72.5283 26.1412 72.916 26.2588 73.2457 26.4791C73.5754 26.6994 73.8323 27.0125 73.9841 27.3789C74.1358 27.7452 74.1755 28.1483 74.0982 28.5372C74.0208 28.9262 73.8298 29.2834 73.5495 29.5637C73.2691 29.8441 72.9118 30.0351 72.5229 30.1124C72.134 30.1898 71.7309 30.1501 71.3646 29.9984C70.9982 29.8466 70.6851 29.5896 70.4648 29.2599C70.2445 28.9302 70.127 28.5426 70.127 28.1461C70.127 27.8828 70.1788 27.6221 70.2796 27.3789C70.3803 27.1356 70.528 26.9146 70.7142 26.7284C70.9003 26.5423 71.1213 26.3946 71.3646 26.2939C71.6078 26.1931 71.8685 26.1412 72.1318 26.1412ZM73.6827 30.2311C74.1108 30.3222 74.4946 30.5572 74.7705 30.8969C75.0463 31.2367 75.1974 31.6607 75.1987 32.0983V32.125C74.8289 32.5822 74.3617 32.9511 73.8311 33.2044C73.3004 33.4577 72.7198 33.5892 72.1318 33.5892C71.5438 33.5892 70.9632 33.4577 70.4326 33.2044C69.9019 32.9511 69.4347 32.5822 69.0649 32.125V32.0983C69.0663 31.6604 69.2177 31.2362 69.4939 30.8964C69.7701 30.5566 70.1545 30.3218 70.583 30.2311C71.0123 30.606 71.5629 30.8126 72.1328 30.8126C72.7028 30.8126 73.2534 30.606 73.6827 30.2311Z" fill="white"/>
<g style="mix-blend-mode:multiply" opacity="0.35">
<path fill-rule="evenodd" clip-rule="evenodd" d="M148.436 62.5347L103.211 62.5573C102.026 62.5573 101.054 63.8617 101.054 65.4496V96.4674C101.054 98.0553 102.026 99.3617 103.211 99.3597L148.436 99.3371V62.5347Z" fill="#F95DB0"/>
</g>
<path fill-rule="evenodd" clip-rule="evenodd" d="M106.21 62.389H153.39C154.52 62.389 155.444 63.5886 155.444 65.0594V93.5917C155.444 95.0522 154.518 96.2518 153.39 96.2518H106.21C105.082 96.2518 104.156 95.0542 104.156 93.5917V65.0594C104.156 63.5866 105.08 62.389 106.21 62.389Z" fill="url(#paint9_linear_29_473)"/>
<path d="M151.926 90.114H107.675C107.336 90.114 107.061 90.389 107.061 90.7282V92.1025C107.061 92.4417 107.336 92.7166 107.675 92.7166H151.926C152.265 92.7166 152.54 92.4417 152.54 92.1025V90.7282C152.54 90.389 152.265 90.114 151.926 90.114Z" fill="#14A0EC"/>
<path opacity="0.5" fill-rule="evenodd" clip-rule="evenodd" d="M107.829 90.2167H127.434C127.585 90.2167 127.729 90.2763 127.836 90.3825C127.943 90.4887 128.004 90.6329 128.005 90.7836V92.0511C128.003 92.2016 127.943 92.3455 127.836 92.4516C127.729 92.5577 127.585 92.6174 127.434 92.618H107.829C107.678 92.618 107.534 92.5584 107.427 92.4522C107.32 92.346 107.259 92.2018 107.258 92.0511V90.7836C107.259 90.6329 107.32 90.4887 107.427 90.3825C107.534 90.2763 107.678 90.2167 107.829 90.2167Z" fill="#00EDFF"/>
<path fill-rule="evenodd" clip-rule="evenodd" d="M178.217 94.2388L177.225 95.7835L178.967 97.7124C178.967 97.7124 179.821 97.7 179.889 97.6774C179.957 97.6548 180.883 96.4306 180.883 96.4306L180.409 95.4261L178.217 94.2388Z" fill="url(#paint10_linear_29_473)"/>
<path fill-rule="evenodd" clip-rule="evenodd" d="M133.023 84.3931C132.578 82.9819 132.639 82.5074 132.908 82.3923C133.177 82.2773 133.463 82.8278 133.935 83.783C134.478 84.8676 135.141 85.946 136.178 86.5602L134.792 88.5959C133.559 87.4065 132.347 87.2299 131.257 86.4513C129.889 85.4736 129.441 84.4588 128.488 82.7128C127.085 80.1389 129.322 80.0649 130.659 81.583C131.552 82.5895 132.261 84.0192 133.023 84.3931Z" fill="url(#paint11_linear_29_473)"/>
<path fill-rule="evenodd" clip-rule="evenodd" d="M161.41 146.745C161.615 147.727 162.205 148.477 162.299 149.198C162.464 150.43 161.747 151.689 160.276 151.702L150.66 151.788C151.17 148.501 156.309 150.325 158.037 146.681L160.274 146.809L161.41 146.745Z" fill="url(#paint12_linear_29_473)"/>
<path style="mix-blend-mode:multiply" opacity="0.5" fill-rule="evenodd" clip-rule="evenodd" d="M161.41 146.745C161.514 147.195 161.672 147.631 161.88 148.043C161.765 148.964 158.429 149.465 157.285 147.77C157.594 147.452 157.848 147.084 158.037 146.681L160.274 146.809L161.41 146.745Z" fill="url(#paint13_linear_29_473)"/>
<path fill-rule="evenodd" clip-rule="evenodd" d="M166.258 101.697C164.088 108.606 162.334 114.261 161.245 119.708C159.602 127.89 158.953 135.936 157.468 146.71C158.721 148.045 161.395 147.737 162.067 147.446C167.613 126.493 169.618 122.418 180.166 105.399L177.662 97.3425L169.061 99.4111L166.258 101.697Z" fill="url(#paint14_linear_29_473)"/>
<path style="mix-blend-mode:multiply" opacity="0.5" fill-rule="evenodd" clip-rule="evenodd" d="M171.331 109.651C167.558 115.885 162.414 132.863 162.071 147.448C166.851 129.371 169.002 123.86 176.266 111.775L171.331 109.651Z" fill="url(#paint15_linear_29_473)"/>
<path fill-rule="evenodd" clip-rule="evenodd" d="M198.391 105.212C198.869 104.333 198.894 103.363 199.287 102.761C199.96 101.706 201.312 101.208 202.446 102.145L209.863 108.264C207.361 110.452 204.597 105.75 200.932 107.43L199.289 105.894L198.391 105.212Z" fill="url(#paint16_linear_29_473)"/>
<path style="mix-blend-mode:multiply" opacity="0.5" fill-rule="evenodd" clip-rule="evenodd" d="M198.391 105.212C198.599 104.8 198.758 104.365 198.863 103.916C199.545 103.285 202.421 105.046 202.208 107.079C201.766 107.124 201.334 107.243 200.932 107.43L199.289 105.894L198.391 105.212Z" fill="url(#paint17_linear_29_473)"/>
<path fill-rule="evenodd" clip-rule="evenodd" d="M165.908 101.968C169.836 109.583 172.734 115.885 179.398 119.458C188.818 124.505 196.678 113.593 202.049 107.467C200.55 105.035 199.732 104.641 198.185 104.201C193.609 108.006 187.45 113.531 183.683 110.842C182.502 109.998 181.799 108.098 181.142 105.399C180.472 102.655 179.959 100.072 178.32 97.8725C177.703 97.0508 176.919 96.3791 176.033 95.656L165.908 101.968Z" fill="url(#paint18_linear_29_473)"/>
<path style="mix-blend-mode:multiply" opacity="0.5" fill-rule="evenodd" clip-rule="evenodd" d="M165.908 101.968C169.836 109.583 172.734 115.885 179.398 119.458C188.818 124.505 196.678 113.593 202.049 107.467C188.186 122.155 176.3 120.906 165.908 101.968Z" fill="url(#paint19_linear_29_473)"/>
<path fill-rule="evenodd" clip-rule="evenodd" d="M154.697 77.4048C155.001 79.6644 155.438 81.7309 157.745 83.5283L153.855 86.1987C153.431 83.8487 153.068 82.2609 151.977 80.7018L154.099 77.5712L154.697 77.4048Z" fill="#FFA698"/>
<path fill-rule="evenodd" clip-rule="evenodd" d="M154.697 77.4048C154.802 78.3563 155.004 79.2946 155.301 80.2047C155.516 81.1147 154.078 82.8566 152.811 82.1931C152.585 81.6674 152.306 81.1663 151.977 80.6977L154.099 77.5671L154.697 77.4048Z" fill="url(#paint20_linear_29_473)"/>
<path fill-rule="evenodd" clip-rule="evenodd" d="M148 76.1374C149.36 80.634 149.953 82.7293 151.227 82.341C151.747 82.1828 152.628 81.3139 153.544 80.3423C154.91 78.8818 153.84 76.6674 153.199 74.0155L150.477 72.8179L148 76.1374Z" fill="url(#paint21_linear_29_473)"/>
<path fill-rule="evenodd" clip-rule="evenodd" d="M148 76.1374L148.246 76.9591C149.625 77.3699 151.233 75.6834 151.613 75.3301C152.174 76.6653 152.975 78.2491 154.173 79.0112C154.364 77.6636 153.667 75.9587 153.199 74.0216L150.477 72.824L148 76.1374Z" fill="#FFA698"/>
<path fill-rule="evenodd" clip-rule="evenodd" d="M135.495 85.5024C140.714 88.5015 144.122 89.3129 146.404 88.637C148.298 88.0783 149.82 86.7472 152.302 84.6027C154.561 82.6471 156.264 81.088 159.296 80.5169C162.466 79.9212 166.28 80.2273 168.562 80.6422C173.1 81.4639 177.601 83.4934 179.589 86.9958C181.027 89.51 181.009 92.6159 180.998 96.7551C180.703 96.5497 177.777 94.6434 177.615 94.4955C176.35 87.7661 175.019 87.4846 169.399 86.8951C172.357 89.3211 174.77 92.0305 177.399 94.3045C178.566 95.3172 179.612 95.9293 181.048 96.9379C177.25 100.978 170.834 103.511 165.479 103.224C162.398 98.1457 159.185 97.0961 155.192 92.9035C146.394 96.8804 142.446 95.8882 133.991 88.5898C133.827 86.891 134.519 85.9605 135.495 85.5024Z" fill="url(#paint22_linear_29_473)"/>
<path style="mix-blend-mode:multiply" opacity="0.5" fill-rule="evenodd" clip-rule="evenodd" d="M168.209 85.6215C176.894 85.9193 177.145 89.0786 177.623 94.4913C176.358 87.7619 175.027 87.4825 169.407 86.8909C168.935 86.5428 168.529 86.1129 168.209 85.6215Z" fill="url(#paint23_linear_29_473)"/>
<path style="mix-blend-mode:multiply" opacity="0.5" fill-rule="evenodd" clip-rule="evenodd" d="M155.9 89.9702C158.226 93.6677 163.209 97.322 165.471 103.117C162.389 98.0389 159.242 97.0652 155.249 92.8727C146.449 96.8496 142.437 95.8903 133.982 88.5836C139.171 92.3674 146.679 95.8512 155.9 89.9702Z" fill="url(#paint24_linear_29_473)"/>
<path fill-rule="evenodd" clip-rule="evenodd" d="M150.368 71.3862C155.896 63.1223 162.993 66.867 167.213 66.5589C173.157 66.1337 174.373 62.5512 177.847 61.1359C183.241 58.9421 188.477 60.4621 191.199 66.1768C194.325 72.7132 188.783 87.1457 177.829 83.8426C174.232 82.7601 172.488 79.4672 169.049 79.7137C166.767 79.8781 159.902 84.4383 154.703 79.383C153.244 77.9677 152.162 75.9669 151.698 74.6954C150.956 75.5417 149.83 76.2114 148.85 76.3778C146.412 76.7886 144.991 74.8495 145.311 73.1466C145.821 70.4967 148.945 70.5542 150.368 71.3862Z" fill="url(#paint25_linear_29_473)"/>
<path fill-rule="evenodd" clip-rule="evenodd" d="M192.011 71.799C191.407 78.5469 186.197 86.3671 177.837 83.8508C174.24 82.7682 172.496 79.4754 169.057 79.7219C166.775 79.8863 159.91 84.4465 154.711 79.3912C153.253 77.9759 152.17 75.9751 151.706 74.7036C150.964 75.5499 149.839 76.2196 148.859 76.386C147.01 76.7044 145.739 75.6547 145.379 74.3852C147.402 75.9505 150.104 75.3856 152.012 73.2143C156.622 77.8239 159.066 78.4381 162.431 77.8691C167.515 77.0084 168.979 76.2257 170.853 76.0758C173.957 75.8416 176.194 78.9516 179.649 79.6397C183.375 80.3813 189.632 78.5387 192.011 71.799Z" fill="#22043D"/>
<path d="M135.738 82.0794C139.131 78.6861 139.131 73.1845 135.738 69.7912C132.344 66.3979 126.843 66.3979 123.449 69.7912C120.056 73.1845 120.056 78.6861 123.449 82.0794C126.843 85.4727 132.344 85.4727 135.738 82.0794Z" fill="url(#paint26_linear_29_473)"/>
<path fill-rule="evenodd" clip-rule="evenodd" d="M126.012 71.912L135.412 75.971L126.012 80.03V71.912Z" fill="white"/>
<path fill-rule="evenodd" clip-rule="evenodd" d="M132.861 84.1178C132.417 82.7045 132.477 82.23 132.746 82.115C133.015 82 133.276 82.5648 133.773 83.5057L134.184 84.2657L132.485 85.7344L132.861 84.1178Z" fill="url(#paint27_linear_29_473)"/>
<g style="mix-blend-mode:multiply" opacity="0.35">
<path fill-rule="evenodd" clip-rule="evenodd" d="M145.239 28.2775H128.362C126.435 28.2775 124.858 29.9455 124.858 31.975V55.6204C124.858 57.6417 126.441 59.3179 128.362 59.3179H148.517L148.394 51.6991L145.239 28.2775Z" fill="#F95DB0"/>
</g>
<path fill-rule="evenodd" clip-rule="evenodd" d="M152.642 28.2775H131.971C130.297 28.2775 128.929 29.7155 128.929 31.4779V52.0092C128.929 53.7635 130.305 55.2117 131.971 55.2117H152.642C154.308 55.2117 155.685 53.7738 155.685 52.0092V31.4861C155.685 29.7175 154.317 28.2775 152.642 28.2775Z" fill="url(#paint28_linear_29_473)"/>
<path fill-rule="evenodd" clip-rule="evenodd" d="M144.262 33.2466L143.943 30.6932H140.671L140.352 33.2466C139.391 33.4492 138.469 33.8028 137.618 34.2942L135.655 32.772L133.338 35.0871L134.755 36.9153C134.141 37.7939 133.698 38.7809 133.451 39.824L131.261 40.1034V43.3818L133.451 43.6612C133.698 44.7043 134.141 45.6912 134.755 46.5698L133.338 48.3981L135.655 50.7131L137.618 49.191C138.468 49.6825 139.391 50.0354 140.352 50.2365L140.671 52.7899H143.943L144.262 50.2365C145.223 50.0354 146.146 49.6825 146.996 49.191L148.961 50.7131L151.277 48.3981L149.859 46.5698C150.473 45.6912 150.916 44.7043 151.164 43.6612L153.353 43.3818V40.0951L151.164 39.8158C150.916 38.7726 150.473 37.7857 149.859 36.9071L151.277 35.0789L148.961 32.7638L146.996 34.286C146.145 33.7946 145.222 33.441 144.262 33.2383V33.2466ZM142.308 36.1799C143.408 36.1803 144.483 36.5068 145.397 37.118C146.311 37.7293 147.023 38.5979 147.444 39.614C147.864 40.6301 147.974 41.7481 147.76 42.8266C147.545 43.9051 147.015 44.8957 146.237 45.6732C145.459 46.4506 144.469 46.98 143.39 47.1944C142.311 47.4088 141.193 47.2986 140.178 46.8776C139.162 46.4567 138.293 45.744 137.682 44.8296C137.071 43.9152 136.745 42.8402 136.745 41.7405C136.745 41.0101 136.889 40.2869 137.169 39.6121C137.448 38.9373 137.858 38.3242 138.375 37.8078C138.891 37.2915 139.505 36.8819 140.179 36.6026C140.854 36.3233 141.578 36.1796 142.308 36.1799Z" fill="white"/>
<g style="mix-blend-mode:multiply" opacity="0.35">
<path fill-rule="evenodd" clip-rule="evenodd" d="M65.3818 73.5287L95.7588 73.5533C96.5393 73.5533 97.1802 74.4038 97.1802 75.4391V94.855C97.1802 95.882 96.5393 96.7428 95.7588 96.7428L65.3818 96.7181V73.5287Z" fill="#F95DB0"/>
</g>
<path fill-rule="evenodd" clip-rule="evenodd" d="M62.0728 73.6683H92.8647C93.6021 73.6683 94.206 74.377 94.206 75.2418V92.1126C94.206 92.9774 93.6 93.6861 92.8647 93.6861H62.0728C61.3374 93.6861 60.7314 92.9795 60.7314 92.1126V75.2418C60.7314 74.377 61.3354 73.6683 62.0728 73.6683Z" fill="white"/>
<path fill-rule="evenodd" clip-rule="evenodd" d="M90.5969 82.8115L82.142 77.8692L82.863 75.7205L93.1338 81.7248L92.2608 84.3274L77.5366 91.6341V91.6053L78.5514 88.5796L90.5969 82.8115Z" fill="url(#paint29_linear_29_473)"/>
<path fill-rule="evenodd" clip-rule="evenodd" d="M73.4014 92.1065L79.0524 75.2501L81.4866 75.248L75.8335 92.1065H73.4014Z" fill="url(#paint30_linear_29_473)"/>
<path fill-rule="evenodd" clip-rule="evenodd" d="M64.3406 84.5431L72.7955 89.4875L72.0745 91.6341L61.8037 85.6298L62.6747 83.0292L77.4009 75.7205V75.7493L76.3862 78.7751L64.3406 84.5431Z" fill="url(#paint31_linear_29_473)"/>
<path fill-rule="evenodd" clip-rule="evenodd" d="M39.5736 147.25C39.3682 148.277 38.7519 149.048 38.6492 149.795C38.4787 151.085 39.2223 152.382 40.7485 152.394L50.7256 152.484C50.1977 149.074 44.8651 150.964 43.0718 147.185L40.7506 147.316L39.5736 147.25Z" fill="url(#paint32_linear_29_473)"/>
<path style="mix-blend-mode:multiply" opacity="0.5" fill-rule="evenodd" clip-rule="evenodd" d="M39.5733 147.25C39.5158 147.647 39.1296 148.51 39.0063 148.799C39.941 149.446 43.6159 149.995 44.4458 148.859C44.0349 148.508 43.3796 147.902 43.1085 147.331L40.7483 147.322L39.5733 147.25Z" fill="url(#paint33_linear_29_473)"/>
<path fill-rule="evenodd" clip-rule="evenodd" d="M26.9363 144.323C26.5008 145.849 25.8167 148.049 25.8825 149.611C25.9236 150.603 26.9301 150.208 27.4847 151.063C27.6901 151.385 27.4847 152.002 26.8685 152.071C25.599 152.215 22.7232 152.004 21.7495 151.876C20.7224 151.743 21.4496 150.888 21.6571 148.647C21.7043 148.138 21.7351 147.676 21.5482 147.357C21.1805 146.741 21.1209 146.125 21.501 145.303C21.9282 144.379 22.8074 144.208 23.5407 143.043L26.9363 144.323Z" fill="url(#paint34_linear_29_473)"/>
<path style="mix-blend-mode:multiply" opacity="0.5" fill-rule="evenodd" clip-rule="evenodd" d="M26.8068 144.551C26.6199 145.202 26.3672 146.162 26.1906 146.907C24.4507 146.377 22.7622 145.743 22.1418 144.527C22.3883 144.301 23.3065 143.426 23.5428 143.054L26.8068 144.551Z" fill="url(#paint35_linear_29_473)"/>
<path fill-rule="evenodd" clip-rule="evenodd" d="M36.0054 97.5849C35.6829 101.404 35.8616 104.943 35.6931 108.762C34.9495 125.505 31.7491 127.009 22.8669 143.374C23.9824 145.615 26.4556 145.952 28.0455 145.338C41.9953 125.281 44.0844 121.976 47.7798 98.5647L36.0054 97.5849Z" fill="url(#paint36_linear_29_473)"/>
<path style="mix-blend-mode:multiply" opacity="0.5" fill-rule="evenodd" clip-rule="evenodd" d="M39.4134 99.6658C39.0909 103.484 39.0231 111.931 38.8546 115.75C38.3699 126.637 31.4987 137.586 28.3784 144.843C42.3282 124.786 44.0763 121.986 47.7717 98.575L39.4134 99.6658Z" fill="url(#paint37_linear_29_473)"/>
<path fill-rule="evenodd" clip-rule="evenodd" d="M52.7404 95.9477C55.0719 118.654 53.862 126.871 44.345 148.006C43.318 149.085 39.715 148.417 39.1665 146.918C42.3279 135.081 44.0965 128.186 44.4128 122.925C45.1461 110.446 39.6348 110.204 39.2774 96.8741L52.7404 95.9477Z" fill="url(#paint38_linear_29_473)"/>
<path fill-rule="evenodd" clip-rule="evenodd" d="M53.5724 79.3871C54.3776 86.9875 53.9832 94.2675 53.5847 102.624C48.2439 103.98 40.7257 104.534 35.2144 100.775C36.0175 92.5584 35.276 80.9811 37.0631 77.3001C40.0108 71.2506 50.6267 70.433 53.5724 79.3871Z" fill="#70C851"/>
<path style="mix-blend-mode:multiply" opacity="0.5" fill-rule="evenodd" clip-rule="evenodd" d="M53.2993 78.3477C54.7084 85.677 53.552 95.0193 53.5848 102.624L48.9712 77.563L53.2993 78.3477Z" fill="url(#paint39_linear_29_473)"/>
<path fill-rule="evenodd" clip-rule="evenodd" d="M44.906 70.7986C44.8608 71.6367 45.2737 72.7747 45.5223 73.3273C45.1402 74.0421 43.2319 74.9151 41.5187 74.5207C41.4345 72.9739 41.1777 72.1215 40.2698 70.9691L42.0856 70.0611L43.6776 69.8331L44.906 70.7986Z" fill="#FFA698"/>
<path fill-rule="evenodd" clip-rule="evenodd" d="M44.9061 70.7987C44.8993 71.2153 44.954 71.6306 45.0684 72.0312C44.8342 72.7152 42.2419 74.0854 41.2641 72.7563C41.0558 72.0998 40.7208 71.4906 40.2781 70.963L42.094 70.0551L43.6859 69.8271L44.9061 70.7987Z" fill="url(#paint40_linear_29_473)"/>
<path fill-rule="evenodd" clip-rule="evenodd" d="M44.9921 63.5864C45.8137 65.6406 46.6128 67.2141 46.7566 69.3196C46.8305 70.398 46.5162 70.7123 45.5035 70.8951C43.6753 71.2238 42.258 71.306 41.4404 70.4309L39.9368 68.2145L41.0152 64.3239L43.0324 63.5864H44.9921Z" fill="url(#paint41_linear_29_473)"/>
<path fill-rule="evenodd" clip-rule="evenodd" d="M44.9921 63.5864C45.1132 63.8904 45.2344 64.1821 45.3536 64.4697C44.9701 64.8084 44.5432 65.0944 44.0841 65.3201C43.5973 66.3472 44.1437 67.8118 43.5459 68.1343C43.2871 68.274 42.9297 68.1343 42.6606 67.9433C41.654 67.1627 41.8389 68.0255 42.4675 68.7978C43.018 69.4654 43.1967 69.8249 43.0303 71.1046C42.373 71.0492 41.8369 70.8499 41.4404 70.4309L39.9368 68.2145L41.0152 64.3239L43.0324 63.5864H44.9921Z" fill="#FFA698"/>
<path fill-rule="evenodd" clip-rule="evenodd" d="M35.6397 66.2713C34.2819 63.872 35.7198 61.6083 37.9219 61.9308C38.2136 60.4724 39.6084 60.0985 40.7977 60.3512C41.2229 58.9132 43.0573 58.5784 44.1254 59.2275C46.2145 60.4888 46.876 63.2229 43.7311 64.8539C43.2668 66.0207 43.4558 66.5568 43.273 67.7585C43.2401 67.9639 42.7594 67.4154 42.2849 67.2059C41.9624 67.0642 41.5475 67.132 41.4098 67.3743C40.96 68.1734 42.0877 68.6376 42.4554 69.5148C42.6679 70.1566 42.7194 70.8409 42.6054 71.5073C42.4616 72.1667 41.9624 72.5138 41.3236 72.0927C38.2506 70.0591 36.6791 68.1077 35.6397 66.2713Z" fill="url(#paint42_linear_29_473)"/>
<path fill-rule="evenodd" clip-rule="evenodd" d="M45.206 60.1766C46.3153 61.5714 46.2146 63.5598 43.7209 64.854C43.2566 66.0207 43.4456 66.5569 43.2628 67.7585C43.2299 67.964 42.7493 67.4155 42.2748 67.206C41.9523 67.0642 41.5373 67.132 41.3997 67.3744C40.9498 68.1735 42.0775 68.6377 42.4452 69.5148C42.6577 70.1567 42.7092 70.841 42.5952 71.5074C42.4514 72.1668 41.9522 72.5139 41.3134 72.0928C40.7958 71.7477 40.3212 71.4067 39.8755 71.0657C40.576 70.7432 40.9026 70.0695 40.5903 68.8883C40.1528 67.2697 39.9166 65.9118 41.7242 66.1583C42.6917 66.2898 41.9995 65.5133 42.7513 63.7652C43.7989 63.1839 45.0622 62.5019 45.206 60.1766Z" fill="#22043D"/>
<path fill-rule="evenodd" clip-rule="evenodd" d="M54.8445 76.236C59.7395 77.0577 65.2755 73.9477 69.314 69.4573C70.832 67.7646 71.0251 67.2696 71.4893 65.6427C71.9823 63.911 72.2432 63.3297 73.2436 62.4485C74.3035 61.5138 74.6815 61.8856 73.9913 62.886C73.7243 63.2763 73.4079 63.3708 73.3524 64.4451C75.1231 62.7176 77.1362 59.5932 79.3095 60.9222C79.1267 61.0681 78.648 61.4296 77.7545 62.7484C76.8609 64.0672 75.6346 66.3493 75.5319 66.4623C74.6856 67.399 73.8311 68.0358 72.9088 69.5744C67.3297 78.8982 64.4189 82.5382 54.2775 83.2428L53.1128 78.8201L54.8445 76.236Z" fill="url(#paint43_linear_29_473)"/>
<path fill-rule="evenodd" clip-rule="evenodd" d="M54.8439 76.236C55.3503 76.3217 55.8627 76.3663 56.3763 76.3696C56.8648 77.8665 57.1049 79.4333 57.0871 81.0079C63.5412 79.7589 67.9433 75.7492 72.9041 69.5682C67.325 78.8941 64.4142 82.532 54.2728 83.2366L53.1082 78.814L54.8439 76.236Z" fill="url(#paint44_linear_29_473)"/>
<path fill-rule="evenodd" clip-rule="evenodd" d="M60.7166 75.3424C64.6709 73.8799 68.4423 70.9178 70.4718 67.9043C70.8231 67.6085 72.9861 68.5452 73.1833 69.5744C69.4632 75.7903 66.7312 79.4343 62.4072 81.4371C59.2787 82.8751 54.3117 83.7255 50.4931 83.1318C47.4919 82.6655 45.8383 81.2831 46.2286 78.5757C46.3601 77.6595 47.6665 75.6198 50.0987 75.5623C54.4946 75.4575 55.7291 77.1891 60.7166 75.3424Z" fill="#70C851"/>
<path style="mix-blend-mode:multiply" opacity="0.5" fill-rule="evenodd" clip-rule="evenodd" d="M73.1833 69.5745C69.4632 75.7904 66.7312 79.4344 62.4072 81.4372C59.2787 82.8751 54.3117 83.7256 50.4931 83.1319C47.4919 82.6656 45.8383 81.2832 46.2286 78.5758C55.154 83.7215 64.9543 80.4553 73.1833 69.5745Z" fill="url(#paint45_linear_29_473)"/>
<path d="M139.541 108.767H117.986C117.612 108.767 117.309 109.071 117.309 109.445V110.957C117.309 111.331 117.612 111.635 117.986 111.635H139.541C139.915 111.635 140.219 111.331 140.219 110.957V109.445C140.219 109.071 139.915 108.767 139.541 108.767Z" fill="white"/>
<path d="M139.541 116.148H117.986C117.612 116.148 117.309 116.451 117.309 116.826V118.338C117.309 118.712 117.612 119.016 117.986 119.016H139.541C139.915 119.016 140.219 118.712 140.219 118.338V116.826C140.219 116.451 139.915 116.148 139.541 116.148Z" fill="white"/>
<path d="M128.6 121.457H118.079C117.704 121.457 117.401 121.761 117.401 122.135V123.647C117.401 124.021 117.704 124.325 118.079 124.325H128.6C128.975 124.325 129.278 124.021 129.278 123.647V122.135C129.278 121.761 128.975 121.457 128.6 121.457Z" fill="white"/>
<path opacity="0.3" fill-rule="evenodd" clip-rule="evenodd" d="M105.5 102C106.192 102 106.869 102.205 107.444 102.59C108.02 102.974 108.469 103.521 108.734 104.161C108.998 104.8 109.068 105.504 108.933 106.183C108.798 106.862 108.464 107.485 107.975 107.975C107.485 108.464 106.862 108.798 106.183 108.933C105.504 109.068 104.8 108.998 104.161 108.734C103.521 108.469 102.974 108.02 102.59 107.444C102.205 106.869 102 106.192 102 105.5C102 104.572 102.369 103.681 103.025 103.025C103.681 102.369 104.572 102 105.5 102Z" fill="white"/>
<path d="M105.5 107C106.328 107 107 106.328 107 105.5C107 104.672 106.328 104 105.5 104C104.672 104 104 104.672 104 105.5C104 106.328 104.672 107 105.5 107Z" fill="white"/>
<path opacity="0.3" d="M109.426 111H100.574C100.257 111 100 111.295 100 111.66V112.34C100 112.705 100.257 113 100.574 113H109.426C109.743 113 110 112.705 110 112.34V111.66C110 111.295 109.743 111 109.426 111Z" fill="white"/>
<path opacity="0.3" d="M112.566 114H100.434C100.194 114 100 114.295 100 114.66V115.34C100 115.705 100.194 116 100.434 116H112.566C112.806 116 113 115.705 113 115.34V114.66C113 114.295 112.806 114 112.566 114Z" fill="white"/>
<path opacity="0.2" d="M66.1644 102H95.8374C96.1214 102 96.4026 102.056 96.665 102.163C96.9274 102.271 97.1658 102.429 97.3666 102.628C97.5674 102.828 97.7267 103.064 97.8353 103.324C97.944 103.585 98 103.864 98 104.145V122.853C98 123.422 97.7719 123.968 97.366 124.371C96.9601 124.774 96.4096 125 95.8356 125H66.1644C65.5903 125 65.0398 124.774 64.6339 124.371C64.228 123.968 64 123.422 64 122.853V104.144C64.001 103.575 64.2294 103.03 64.6352 102.628C65.041 102.226 65.591 102 66.1644 102Z" fill="url(#paint46_linear_29_473)"/>
<path fill-rule="evenodd" clip-rule="evenodd" d="M74.2842 105L83.9349 117.583L89.8987 112.587L97 123H66L74.2842 105Z" fill="white"/>
<path d="M84.5 109C85.8807 109 87 108.105 87 107C87 105.895 85.8807 105 84.5 105C83.1193 105 82 105.895 82 107C82 108.105 83.1193 109 84.5 109Z" fill="#FFC770"/>
<defs>
<linearGradient id="paint0_linear_29_473" x1="36.8205" y1="31.3752" x2="37.445" y2="40.0499" gradientUnits="userSpaceOnUse">
<stop stop-color="#6D6AFE"/>
<stop offset="1" stop-color="#3FB0F7"/>
</linearGradient>
<linearGradient id="paint1_linear_29_473" x1="170.695" y1="18.4093" x2="170.726" y2="26.6116" gradientUnits="userSpaceOnUse">
<stop stop-color="#FA5DB1"/>
<stop offset="1" stop-color="#FEBFBF"/>
</linearGradient>
<linearGradient id="paint2_linear_29_473" x1="195.404" y1="75.1062" x2="198.384" y2="84.2493" gradientUnits="userSpaceOnUse">
<stop stop-color="#1C8EF4"/>
<stop offset="1" stop-color="#00CFDD"/>
</linearGradient>
<linearGradient id="paint3_linear_29_473" x1="30997.4" y1="19793.8" x2="30999.3" y2="20309.4" gradientUnits="userSpaceOnUse">
<stop stop-color="#FA5DB1"/>
<stop offset="1" stop-color="#FEBFBF"/>
</linearGradient>
<linearGradient id="paint4_linear_29_473" x1="108.388" y1="7.47028" x2="109.803" y2="15.272" gradientUnits="userSpaceOnUse">
<stop stop-color="#A77EF7"/>
<stop offset="1" stop-color="#5E65D6"/>
</linearGradient>
<linearGradient id="paint5_linear_29_473" x1="51.461" y1="54.6406" x2="55.444" y2="70.8027" gradientUnits="userSpaceOnUse">
<stop stop-color="#FFB89E"/>
<stop offset="1" stop-color="#FFA799"/>
</linearGradient>
<linearGradient id="paint6_linear_29_473" x1="55.822" y1="72.0393" x2="52.8188" y2="68.8924" gradientUnits="userSpaceOnUse">
<stop stop-color="#FF8A78"/>
<stop offset="1" stop-color="#FFA799"/>
</linearGradient>
<linearGradient id="paint7_linear_29_473" x1="42284" y1="30997.6" x2="42473.8" y2="32450.6" gradientUnits="userSpaceOnUse">
<stop stop-color="#A77EF7"/>
<stop offset="1" stop-color="#5E65D6"/>
</linearGradient>
<linearGradient id="paint8_linear_29_473" x1="90407" y1="52337.9" x2="88163.4" y2="59220.8" gradientUnits="userSpaceOnUse">
<stop stop-color="#1C8EF4"/>
<stop offset="1" stop-color="#00CFDD"/>
</linearGradient>
<linearGradient id="paint9_linear_29_473" x1="121172" y1="48421.5" x2="120243" y2="52559.4" gradientUnits="userSpaceOnUse">
<stop stop-color="#6D6AFE"/>
<stop offset="1" stop-color="#3FB0F7"/>
</linearGradient>
<linearGradient id="paint10_linear_29_473" x1="9616.63" y1="5541.18" x2="9605.6" y2="5552.83" gradientUnits="userSpaceOnUse">
<stop stop-color="#FF8A78"/>
<stop offset="1" stop-color="#FFA799"/>
</linearGradient>
<linearGradient id="paint11_linear_29_473" x1="19355.7" y1="12284.8" x2="19171.4" y2="12107.3" gradientUnits="userSpaceOnUse">
<stop stop-color="#FF8A78"/>
<stop offset="1" stop-color="#FFA799"/>
</linearGradient>
<linearGradient id="paint12_linear_29_473" x1="155.872" y1="148.9" x2="157.104" y2="151.673" gradientUnits="userSpaceOnUse">
<stop stop-color="#3E4795"/>
<stop offset="1" stop-color="#273088"/>
</linearGradient>
<linearGradient id="paint13_linear_29_473" x1="11612.3" y1="4155.47" x2="11588.4" y2="4182.98" gradientUnits="userSpaceOnUse">
<stop stop-color="#3E4795"/>
<stop offset="1" stop-color="#273088"/>
</linearGradient>
<linearGradient id="paint14_linear_29_473" x1="56738.8" y1="81372.7" x2="59923" y2="85039.8" gradientUnits="userSpaceOnUse">
<stop stop-color="#3E4795"/>
<stop offset="1" stop-color="#273088"/>
</linearGradient>
<linearGradient id="paint15_linear_29_473" x1="35756.3" y1="62723.4" x2="37601.2" y2="64848.1" gradientUnits="userSpaceOnUse">
<stop stop-color="#3E4795"/>
<stop offset="1" stop-color="#273088"/>
</linearGradient>
<linearGradient id="paint16_linear_29_473" x1="31185.7" y1="11813.4" x2="31203.8" y2="11713.6" gradientUnits="userSpaceOnUse">
<stop stop-color="#3E4795"/>
<stop offset="1" stop-color="#273088"/>
</linearGradient>
<linearGradient id="paint17_linear_29_473" x1="10439.9" y1="5984.37" x2="10485.2" y2="5993.66" gradientUnits="userSpaceOnUse">
<stop stop-color="#3E4795"/>
<stop offset="1" stop-color="#273088"/>
</linearGradient>
<linearGradient id="paint18_linear_29_473" x1="92178.4" y1="39729" x2="93836.9" y2="41639" gradientUnits="userSpaceOnUse">
<stop stop-color="#3E4795"/>
<stop offset="1" stop-color="#273088"/>
</linearGradient>
<linearGradient id="paint19_linear_29_473" x1="91778.7" y1="30007.4" x2="93364.5" y2="31833.4" gradientUnits="userSpaceOnUse">
<stop stop-color="#3E4795"/>
<stop offset="1" stop-color="#273088"/>
</linearGradient>
<linearGradient id="paint20_linear_29_473" x1="8376.38" y1="7434.88" x2="8392.3" y2="7446.21" gradientUnits="userSpaceOnUse">
<stop stop-color="#FF8A78"/>
<stop offset="1" stop-color="#FFA799"/>
</linearGradient>
<linearGradient id="paint21_linear_29_473" x1="15321.9" y1="14145" x2="15279.7" y2="14398.1" gradientUnits="userSpaceOnUse">
<stop stop-color="#FFB89E"/>
<stop offset="1" stop-color="#FFA799"/>
</linearGradient>
<linearGradient id="paint22_linear_29_473" x1="158.756" y1="101.771" x2="156.579" y2="82.6286" gradientUnits="userSpaceOnUse">
<stop stop-color="#965CF2"/>
<stop offset="1" stop-color="#FF8ADC"/>
</linearGradient>
<linearGradient id="paint23_linear_29_473" x1="24192.1" y1="13907.2" x2="24159" y2="13447.9" gradientUnits="userSpaceOnUse">
<stop stop-color="#965CF2"/>
<stop offset="1" stop-color="#FF8ADC"/>
</linearGradient>
<linearGradient id="paint24_linear_29_473" x1="77063.8" y1="23388.5" x2="76973.2" y2="22132.6" gradientUnits="userSpaceOnUse">
<stop stop-color="#965CF2"/>
<stop offset="1" stop-color="#FF8ADC"/>
</linearGradient>
<linearGradient id="paint25_linear_29_473" x1="168.406" y1="70.0099" x2="169.926" y2="79.5925" gradientUnits="userSpaceOnUse">
<stop stop-color="#5A2D68"/>
<stop offset="1" stop-color="#22043D"/>
</linearGradient>
<linearGradient id="paint26_linear_29_473" x1="40759.1" y1="26323.1" x2="40789.7" y2="25150.2" gradientUnits="userSpaceOnUse">
<stop stop-color="#70C851"/>
<stop offset="1" stop-color="#70C851"/>
</linearGradient>
<linearGradient id="paint27_linear_29_473" x1="4141.55" y1="5587.03" x2="4116.73" y2="5575.32" gradientUnits="userSpaceOnUse">
<stop stop-color="#FF8A78"/>
<stop offset="1" stop-color="#FFA799"/>
</linearGradient>
<linearGradient id="paint28_linear_29_473" x1="64153.1" y1="33930.8" x2="64670.5" y2="36680.4" gradientUnits="userSpaceOnUse">
<stop stop-color="#A77EF7"/>
<stop offset="1" stop-color="#5E65D6"/>
</linearGradient>
<linearGradient id="paint29_linear_29_473" x1="33045.9" y1="24776.3" x2="33393" y2="23783.3" gradientUnits="userSpaceOnUse">
<stop stop-color="#965CF2"/>
<stop offset="1" stop-color="#FF8ADC"/>
</linearGradient>
<linearGradient id="paint30_linear_29_473" x1="16853" y1="26006.8" x2="17522.1" y2="25070.1" gradientUnits="userSpaceOnUse">
<stop stop-color="#965CF2"/>
<stop offset="1" stop-color="#FF8ADC"/>
</linearGradient>
<linearGradient id="paint31_linear_29_473" x1="31889.5" y1="24174.1" x2="32236.6" y2="23181.1" gradientUnits="userSpaceOnUse">
<stop stop-color="#965CF2"/>
<stop offset="1" stop-color="#FF8ADC"/>
</linearGradient>
<linearGradient id="paint32_linear_29_473" x1="45.278" y1="149.381" x2="44.5467" y2="151.482" gradientUnits="userSpaceOnUse">
<stop stop-color="#40457F"/>
<stop offset="1" stop-color="#1E2353"/>
</linearGradient>
<linearGradient id="paint33_linear_29_473" x1="42.0239" y1="149.411" x2="40.7134" y2="146.84" gradientUnits="userSpaceOnUse">
<stop stop-color="#002041"/>
<stop offset="1" stop-color="#004975"/>
</linearGradient>
<linearGradient id="paint34_linear_29_473" x1="11630" y1="16668.3" x2="11552.2" y2="16696.2" gradientUnits="userSpaceOnUse">
<stop stop-color="#40457F"/>
<stop offset="1" stop-color="#1E2353"/>
</linearGradient>
<linearGradient id="paint35_linear_29_473" x1="8515.5" y1="7086.64" x2="8581.04" y2="7130.88" gradientUnits="userSpaceOnUse">
<stop stop-color="#40457F"/>
<stop offset="1" stop-color="#1E2353"/>
</linearGradient>
<linearGradient id="paint36_linear_29_473" x1="45938.5" y1="78913.3" x2="48958.3" y2="80953" gradientUnits="userSpaceOnUse">
<stop stop-color="#40457F"/>
<stop offset="1" stop-color="#1E2353"/>
</linearGradient>
<linearGradient id="paint37_linear_29_473" x1="36152.5" y1="76107" x2="38741.8" y2="77856.2" gradientUnits="userSpaceOnUse">
<stop stop-color="#40457F"/>
<stop offset="1" stop-color="#1E2353"/>
</linearGradient>
<linearGradient id="paint38_linear_29_473" x1="27818.5" y1="85365.8" x2="31726.7" y2="88005.8" gradientUnits="userSpaceOnUse">
<stop stop-color="#40457F"/>
<stop offset="1" stop-color="#1E2353"/>
</linearGradient>
<linearGradient id="paint39_linear_29_473" x1="9901.53" y1="37516.1" x2="10349.6" y2="39895.4" gradientUnits="userSpaceOnUse">
<stop stop-color="#A77EF7"/>
<stop offset="1" stop-color="#5E65D6"/>
</linearGradient>
<linearGradient id="paint40_linear_29_473" x1="9219.91" y1="5116.08" x2="9220.75" y2="5147" gradientUnits="userSpaceOnUse">
<stop stop-color="#FF8A78"/>
<stop offset="1" stop-color="#FFA799"/>
</linearGradient>
<linearGradient id="paint41_linear_29_473" x1="13144.3" y1="10786.8" x2="13158.1" y2="10949" gradientUnits="userSpaceOnUse">
<stop stop-color="#FFB89E"/>
<stop offset="1" stop-color="#FFA799"/>
</linearGradient>
<linearGradient id="paint42_linear_29_473" x1="20547.7" y1="18884" x2="20719.4" y2="19010" gradientUnits="userSpaceOnUse">
<stop stop-color="#5A2D68"/>
<stop offset="1" stop-color="#22043D"/>
</linearGradient>
<linearGradient id="paint43_linear_29_473" x1="53454.6" y1="31468.7" x2="53170.4" y2="33809.2" gradientUnits="userSpaceOnUse">
<stop stop-color="#FFB89E"/>
<stop offset="1" stop-color="#FFA799"/>
</linearGradient>
<linearGradient id="paint44_linear_29_473" x1="40146.2" y1="20443" x2="40048.4" y2="20088.9" gradientUnits="userSpaceOnUse">
<stop stop-color="#FF8A78"/>
<stop offset="1" stop-color="#FFA799"/>
</linearGradient>
<linearGradient id="paint45_linear_29_473" x1="53938.9" y1="20382.6" x2="53790" y2="21534.2" gradientUnits="userSpaceOnUse">
<stop stop-color="#A77EF7"/>
<stop offset="1" stop-color="#5E65D6"/>
</linearGradient>
<linearGradient id="paint46_linear_29_473" x1="72086.5" y1="39458.7" x2="75296.1" y2="41241.4" gradientUnits="userSpaceOnUse">
<stop stop-color="white"/>
<stop offset="0.56" stop-color="#FF8ADC"/>
<stop offset="1" stop-color="#FFBBA8"/>
</linearGradient>
</defs>
</svg>
