<svg width="189" height="164" viewBox="0 0 189 164" fill="none" xmlns="http://www.w3.org/2000/svg">
<path style="mix-blend-mode:multiply" opacity="0.35" fill-rule="evenodd" clip-rule="evenodd" d="M94.1023 154.628C145.12 154.628 186.479 156.726 186.479 159.314C186.479 161.901 145.126 164 94.1023 164C43.0783 164 1.72314 161.901 1.72314 159.314C1.72314 156.726 43.0823 154.628 94.1023 154.628Z" fill="#0738A9"/>
<path style="mix-blend-mode:multiply" opacity="0.35" fill-rule="evenodd" clip-rule="evenodd" d="M94.1021 156.833C135.534 156.833 169.129 157.944 169.129 159.314C169.129 160.683 135.54 161.795 94.1021 161.795C52.6642 161.795 19.0756 160.683 19.0756 159.314C19.0756 157.944 52.6681 156.833 94.1021 156.833Z" fill="#0738A9"/>
<path style="mix-blend-mode:multiply" opacity="0.35" d="M120.789 156.386C146.109 156.386 166.636 155.275 166.636 153.905C166.636 152.534 146.109 151.424 120.789 151.424C95.4682 151.424 74.9419 152.534 74.9419 153.905C74.9419 155.275 95.4682 156.386 120.789 156.386Z" fill="#0738A9"/>
<path d="M146.323 24.6761H88.7322C84.6517 24.6761 81.3438 27.9864 81.3438 32.0699V147.337C81.3438 151.42 84.6517 154.73 88.7322 154.73H146.323C150.404 154.73 153.712 151.42 153.712 147.337V32.0699C153.712 27.9864 150.404 24.6761 146.323 24.6761Z" fill="#303A7D"/>
<path d="M143.911 27.8981H91.1444C87.4053 27.8981 84.3743 30.9313 84.3743 34.673V144.735C84.3743 148.477 87.4053 151.51 91.1444 151.51H143.911C147.65 151.51 150.681 148.477 150.681 144.735V34.673C150.681 30.9313 147.65 27.8981 143.911 27.8981Z" fill="url(#paint0_linear_9_7)"/>
<path fill-rule="evenodd" clip-rule="evenodd" d="M117.528 49.5866C119.064 49.5862 120.566 50.0417 121.843 50.8955C123.121 51.7492 124.116 52.9629 124.704 54.3831C125.293 55.8032 125.447 57.366 125.147 58.8737C124.848 60.3815 124.108 61.7665 123.022 62.8537C121.936 63.9408 120.552 64.6812 119.046 64.9813C117.539 65.2813 115.977 65.1275 114.558 64.5393C113.139 63.9511 111.926 62.955 111.072 61.6768C110.219 60.3987 109.763 58.8959 109.763 57.3587C109.763 55.2977 110.581 53.3212 112.037 51.8637C113.493 50.4062 115.468 49.5871 117.528 49.5866ZM117.528 51.6006C116.39 51.601 115.278 51.939 114.332 52.5719C113.386 53.2049 112.648 54.1043 112.213 55.1565C111.778 56.2087 111.664 57.3664 111.887 58.4832C112.109 59.6001 112.657 60.6259 113.462 61.431C114.267 62.2361 115.292 62.7843 116.408 63.0063C117.524 63.2283 118.681 63.1142 119.732 62.6783C120.783 62.2424 121.682 61.5044 122.314 60.5575C122.946 59.6106 123.284 58.4974 123.284 57.3587C123.284 56.6023 123.135 55.8534 122.846 55.1547C122.556 54.456 122.132 53.8211 121.598 53.2864C121.063 52.7517 120.429 52.3276 119.73 52.0383C119.032 51.7491 118.284 51.6003 117.528 51.6006Z" fill="white"/>
<path fill-rule="evenodd" clip-rule="evenodd" d="M110.958 67.4718H124.105C124.267 67.4849 124.417 67.5613 124.523 67.6845C124.629 67.8077 124.683 67.9677 124.672 68.13V69.267C124.682 69.4292 124.629 69.5889 124.523 69.712C124.417 69.8351 124.267 69.9116 124.105 69.9252H110.958C110.797 69.9116 110.647 69.835 110.541 69.7119C110.435 69.5887 110.382 69.429 110.393 69.267V68.13C110.382 67.968 110.435 67.8083 110.541 67.6851C110.647 67.562 110.797 67.4854 110.958 67.4718Z" fill="white"/>
<path opacity="0.5" d="M129.686 72.5284H105.372C105.009 72.5284 104.714 72.8231 104.714 73.1866V74.3236C104.714 74.6871 105.009 74.9818 105.372 74.9818H129.686C130.049 74.9818 130.343 74.6871 130.343 74.3236V73.1866C130.343 72.8231 130.049 72.5284 129.686 72.5284Z" fill="white"/>
<path d="M182.946 14.465C184.231 9.04884 180.886 3.61538 175.473 2.32905C170.061 1.04273 164.631 4.39065 163.346 9.80684C162.061 15.223 165.406 20.6565 170.818 21.9428C176.231 23.2291 181.66 19.8812 182.946 14.465Z" fill="url(#paint1_linear_9_7)"/>
<path opacity="0.9" fill-rule="evenodd" clip-rule="evenodd" d="M11.5473 94.3627C13.3677 94.3627 15.1472 94.9029 16.6608 95.9149C18.1744 96.927 19.3541 98.3655 20.0507 100.049C20.7474 101.732 20.9296 103.584 20.5745 105.37C20.2193 107.157 19.3427 108.798 18.0555 110.086C16.7683 111.374 15.1283 112.252 13.3429 112.607C11.5575 112.962 9.70688 112.78 8.02507 112.083C6.34325 111.386 4.90577 110.205 3.89442 108.69C2.88307 107.176 2.34326 105.395 2.34326 103.573C2.34326 102.364 2.58133 101.166 3.04388 100.049C3.50642 98.931 4.18439 97.9157 5.03906 97.0604C5.89373 96.2051 6.90838 95.5267 8.02507 95.0638C9.14175 94.6009 10.3386 94.3627 11.5473 94.3627Z" fill="url(#paint2_linear_9_7)"/>
<path opacity="0.5" fill-rule="evenodd" clip-rule="evenodd" d="M18.6917 19.5427C19.795 19.5427 20.8736 19.8701 21.791 20.4836C22.7085 21.097 23.4235 21.9689 23.8457 22.989C24.268 24.0091 24.3785 25.1316 24.1632 26.2146C23.9479 27.2975 23.4166 28.2923 22.6364 29.073C21.8562 29.8538 20.8622 30.3855 19.78 30.6009C18.6978 30.8163 17.5761 30.7058 16.5568 30.2832C15.5374 29.8607 14.6661 29.1451 14.0531 28.227C13.4401 27.309 13.1129 26.2296 13.1129 25.1254C13.1129 23.6448 13.7007 22.2248 14.7469 21.1779C15.7931 20.1309 17.2121 19.5427 18.6917 19.5427Z" fill="url(#paint3_linear_9_7)"/>
<path fill-rule="evenodd" clip-rule="evenodd" d="M153.55 56.1428C153.79 57.5813 154.214 58.9923 153.353 60.9077L161.516 60.9609C158.759 58.3834 158.583 56.8404 158.613 54.4185L155.563 55.0314L153.55 56.1428Z" fill="url(#paint4_linear_9_7)"/>
<path fill-rule="evenodd" clip-rule="evenodd" d="M151.227 46.4199C149.962 48.0712 149.1 51.8331 149.521 54.7063C149.663 55.6738 149.797 56.8857 150.463 57.2424C151.189 57.6365 152.302 57.4612 153.988 57.27C156.435 56.9922 156.154 56.4089 157.434 54.1466L159.541 48.9186L155.163 44.5833L151.227 46.4199Z" fill="url(#paint5_linear_9_7)"/>
<path fill-rule="evenodd" clip-rule="evenodd" d="M151.227 46.4199C151.016 46.7007 150.832 47.0009 150.677 47.3165C151.359 47.7284 151.79 47.8328 153.145 47.7008C153.235 49.0507 153.905 52.4302 155.525 52.0361C155.813 51.9652 156.144 51.575 156.453 51.374C156.831 51.1297 157.347 51.2558 157.122 51.9809C156.514 53.9516 155.978 54.3201 156.64 55.6739C156.837 55.2797 157.081 54.7772 157.428 54.1486L159.535 48.9206L155.157 44.5853L151.227 46.4199Z" fill="#FFA698"/>
<path fill-rule="evenodd" clip-rule="evenodd" d="M153.578 47.1607C149.702 47.6357 149.145 45.1566 150.045 43.3181C151.167 41.0184 154.574 39.4714 156.833 43.1052C158.495 42.2855 159.137 42.451 159.873 44.3132C162.896 43.6176 163.977 46.3252 163.258 48.8771C162.604 51.2064 160.864 52.6981 159.462 54.5111C159.034 55.0544 158.657 55.6362 158.337 56.2492C157.4 55.9575 157.189 55.5811 157.04 54.9033C156.933 54.4323 157.463 52.8341 157.569 51.7917C157.648 51.0153 157.13 50.4122 156.307 50.9285C156.063 51.0842 155.913 51.4645 155.533 51.8094C153.702 50.7078 153.857 49.1195 153.578 47.1607Z" fill="url(#paint6_linear_9_7)"/>
<path fill-rule="evenodd" clip-rule="evenodd" d="M153.578 47.1607C149.702 47.6357 149.145 45.1566 150.045 43.3181C150.059 43.2865 150.074 43.257 150.09 43.2274C150.23 44.8157 151.165 45.7518 152.757 45.6966C154.547 45.6355 155.072 45.7754 155.383 48.0219C155.549 49.2043 155.655 49.957 156.392 49.7659C157.989 49.3501 158.881 50.0536 158.893 51.9887C158.893 52.9464 159.261 53.6559 159.948 53.9081C159.783 54.1052 159.621 54.3022 159.462 54.5111C159.031 55.0753 158.763 55.7465 158.686 56.4522C155.917 55.589 157.372 53.7367 157.569 51.7917C157.648 51.0153 157.13 50.4122 156.307 50.9285C156.063 51.0842 155.913 51.4646 155.533 51.8094C153.702 50.7078 153.857 49.1195 153.578 47.1607Z" fill="#22043D"/>
<path fill-rule="evenodd" clip-rule="evenodd" d="M167.502 61.5856C168.983 62.9493 170.491 64.246 171.543 65.6057C180.382 77.0529 173.821 87.6193 153.489 83.55C155.761 69.3124 158.381 72.6841 167.502 61.5856Z" fill="url(#paint7_linear_9_7)"/>
<g style="mix-blend-mode:multiply" opacity="0.35">
<path fill-rule="evenodd" clip-rule="evenodd" d="M175.337 74.0792C176.06 81.5419 168.559 86.567 153.479 83.55C155.22 72.6407 157.166 72.0692 162.083 67.4067L167.913 70.0198C168.398 73.5215 168.898 76.8794 169.243 80.4029C172.706 78.9427 174.504 77.4135 175.337 74.0792Z" fill="#053297"/>
</g>
<path fill-rule="evenodd" clip-rule="evenodd" d="M181.552 160.849L172.177 160.999C171.71 160.479 171.586 158.691 172.076 157.925C172.768 156.847 173.185 155.694 173.232 154.622L176.759 154.783L178.279 154.068C178.963 154.965 180.41 156.616 181.43 158.072C181.93 158.788 181.773 160.086 181.552 160.849Z" fill="#0F2F64"/>
<g style="mix-blend-mode:multiply" opacity="0.3">
<path fill-rule="evenodd" clip-rule="evenodd" d="M172.88 156.784C173.072 156.075 173.19 155.349 173.232 154.616L176.759 154.778L178.279 154.062C178.549 154.415 178.935 154.884 179.368 155.414C177.992 156.89 173.778 157.712 172.88 156.784Z" fill="#1E2353"/>
</g>
<path fill-rule="evenodd" clip-rule="evenodd" d="M166.366 93.1646C167.227 95.7717 168.359 97.7423 169.544 103.073C170.834 108.868 171.2 114.331 172.167 119.963C174.113 131.476 176.637 142.883 179.731 154.141C177.825 155.729 174.089 155.731 172.727 155.249C168.65 145.971 166.144 136.922 162.556 127.514C157.633 114.626 152.276 101.719 148.021 89.4815L166.366 93.1646Z" fill="#0738A9"/>
<path style="mix-blend-mode:multiply" opacity="0.5" fill-rule="evenodd" clip-rule="evenodd" d="M158.566 92.9872C160.492 98.8222 171.317 140.908 172.73 155.258C168.654 145.981 166.147 136.932 162.56 127.524C157.637 114.636 152.28 101.729 148.025 89.4913L158.566 92.9872Z" fill="url(#paint8_linear_9_7)"/>
<path fill-rule="evenodd" clip-rule="evenodd" d="M154.474 153.308C154.763 154.746 155.64 155.842 155.778 156.898C156.016 158.717 154.968 160.544 152.824 160.563L138.764 160.687C139.508 155.881 147.034 158.545 149.549 153.217L152.822 153.4L154.474 153.308Z" fill="#0F2F64"/>
<g style="mix-blend-mode:multiply" opacity="0.3">
<path fill-rule="evenodd" clip-rule="evenodd" d="M154.474 153.308C154.57 153.757 154.713 154.196 154.899 154.616C153.582 155.53 151.04 156.149 148.098 155.138C148.708 154.605 149.2 153.951 149.543 153.217L152.816 153.4L154.474 153.308Z" fill="#1E2353"/>
</g>
<path fill-rule="evenodd" clip-rule="evenodd" d="M144.84 91.9645C144.265 95.4131 144.078 98.7 144.128 102.988C144.307 119.102 146.896 137.35 148.621 153.447C150.915 154.328 153.44 154.281 155.35 153.495C155.628 144.174 155.789 134.264 156.744 125.092C158.331 109.854 164.582 99.1789 160.927 90.2126L150.049 89.8441L144.84 91.9645Z" fill="#0738AB"/>
<path fill-rule="evenodd" clip-rule="evenodd" d="M170.034 64.9317C173.305 70.343 168.242 69.5685 167.758 73.4152C166.821 82.1903 166.379 88.1947 167.988 97.1689C158.05 100.773 149.921 99.4311 144.476 97.228C145.563 90.3308 144.326 73.5098 146.087 67.1211C147.113 63.3966 142.542 62.5039 145.348 61.4063C150.486 59.4081 157.754 57.7646 163.087 59.3569C164.788 59.8653 166.183 60.3914 167.543 61.6644C168.37 62.4448 169.199 63.5582 170.034 64.9317Z" fill="url(#paint9_linear_9_7)"/>
<g style="mix-blend-mode:multiply" opacity="0.35">
<path fill-rule="evenodd" clip-rule="evenodd" d="M154.234 99.3622C150.884 99.2002 147.586 98.4789 144.474 97.228C145.561 90.3309 144.325 73.5098 146.085 67.1211C147.111 63.3966 142.828 63.101 145.632 62.0113C147.227 61.3905 150.829 63.0853 151.664 64.9672C157.188 77.4313 156.754 88.0193 154.234 99.3622Z" fill="#17ACC8"/>
</g>
<path fill-rule="evenodd" clip-rule="evenodd" d="M132.637 103.506L137.736 92.6423C137.844 92.4121 138.039 92.2344 138.278 92.1479C138.518 92.0615 138.781 92.0735 139.012 92.1812L156.035 100.227C156.265 100.336 156.442 100.531 156.528 100.77C156.615 101.008 156.603 101.272 156.496 101.502L151.398 112.368C151.289 112.598 151.094 112.775 150.855 112.861C150.615 112.947 150.352 112.935 150.122 112.827L133.098 104.783C132.868 104.674 132.691 104.479 132.605 104.24C132.519 104.001 132.53 103.737 132.637 103.506Z" fill="#9FD2FB"/>
<g style="mix-blend-mode:multiply" opacity="0.5">
<path fill-rule="evenodd" clip-rule="evenodd" d="M145.595 95.2534L150.508 97.5748C149.297 99.5454 148.206 101.362 147.322 103.522C147.334 105.099 146.869 106.774 143.927 109.86L140.825 108.393L142.83 105.721L145.595 95.2534Z" fill="#9FD2FB"/>
</g>
<path fill-rule="evenodd" clip-rule="evenodd" d="M139.976 108.401C141.325 109.081 142.04 109.432 142.385 109.331C143.257 109.077 144.803 106.705 145.498 105.39C146.112 104.208 145.14 102.828 145.64 102.019C144.927 100.836 143.448 99.0804 142.221 99.0626C141.936 101.991 138.297 105.022 137.732 106.649C137.391 107.627 139.268 108.053 139.976 108.401Z" fill="url(#paint10_linear_9_7)"/>
<path fill-rule="evenodd" clip-rule="evenodd" d="M141.04 108.927C141.729 109.253 142.148 109.4 142.389 109.322C143.261 109.069 144.807 106.695 145.502 105.38C146.116 104.198 145.144 102.819 145.644 102.009C144.931 100.826 145.644 102.093 144.425 102.074C144.553 104.803 142.812 106.46 141.04 108.927Z" fill="url(#paint11_linear_9_7)"/>
<path fill-rule="evenodd" clip-rule="evenodd" d="M152.834 74.3985C153.257 78.4264 153.399 82.4997 152.883 85.5797C151.991 90.9201 150.083 95.9589 146.026 102.616C143.537 103.228 141.377 101.559 141.637 99.7228C143.253 96.3727 145.079 87.0951 145.093 84.8033C145.124 80.2079 144.348 75.9494 142.909 69.3242C141.779 64.177 143.106 62.0763 145.542 61.3235C152.068 59.3175 152.369 69.9607 152.834 74.3985Z" fill="url(#paint12_linear_9_7)"/>
<path style="mix-blend-mode:multiply" opacity="0.5" fill-rule="evenodd" clip-rule="evenodd" d="M81.3438 38.8468H102.601C103.447 38.8484 104.257 39.1849 104.855 39.7829C105.452 40.3808 105.789 41.1914 105.791 42.0372V83.2505C105.789 84.0951 105.452 84.9044 104.855 85.5015C104.258 86.0985 103.449 86.4349 102.605 86.4369H81.3438V38.8468Z" fill="url(#paint13_linear_9_7)"/>
<path d="M98.5939 38.8468H58.6408C57.0323 38.8468 55.7284 40.1517 55.7284 41.7613V79.4531C55.7284 81.0628 57.0323 82.3676 58.6408 82.3676H98.5939C100.202 82.3676 101.506 81.0628 101.506 79.4531V41.7613C101.506 40.1517 100.202 38.8468 98.5939 38.8468Z" fill="white"/>
<path opacity="0.3" fill-rule="evenodd" clip-rule="evenodd" d="M61.9708 41.7633C62.7735 41.7633 63.5583 42.0016 64.2258 42.4479C64.8932 42.8943 65.4134 43.5287 65.7205 44.2709C66.0277 45.0132 66.1079 45.8299 65.9512 46.6178C65.7944 47.4057 65.4077 48.1294 64.8399 48.6973C64.2721 49.2652 63.5487 49.6519 62.7613 49.8083C61.9739 49.9648 61.1578 49.8841 60.4163 49.5764C59.6747 49.2687 59.041 48.7479 58.5953 48.0797C58.1495 47.4115 57.9118 46.6261 57.9122 45.8228C57.9122 45.2895 58.0172 44.7615 58.2212 44.2688C58.4252 43.7762 58.7242 43.3286 59.1011 42.9516C59.478 42.5746 59.9254 42.2756 60.4178 42.0717C60.9102 41.8679 61.4379 41.763 61.9708 41.7633Z" fill="#FEC82E"/>
<path fill-rule="evenodd" clip-rule="evenodd" d="M61.9707 43.6373C62.4031 43.6373 62.8258 43.7657 63.1853 44.0061C63.5448 44.2465 63.825 44.5883 63.9903 44.9881C64.1557 45.3879 64.1989 45.8278 64.1144 46.2522C64.0299 46.6765 63.8215 47.0663 63.5156 47.3721C63.2098 47.6779 62.8201 47.8861 62.396 47.9703C61.9718 48.0545 61.5323 48.0109 61.1329 47.845C60.7335 47.6792 60.3923 47.3985 60.1523 47.0385C59.9124 46.6785 59.7845 46.2554 59.7849 45.8227C59.7849 45.5356 59.8415 45.2512 59.9513 44.986C60.0612 44.7207 60.2222 44.4797 60.4252 44.2767C60.6282 44.0738 60.8692 43.9128 61.1344 43.8031C61.3996 43.6934 61.6838 43.6371 61.9707 43.6373Z" fill="#FEC82E"/>
<path d="M80.1287 42.725H68.473C68.0564 42.725 67.7188 43.0629 67.7188 43.4797V44.2601C67.7188 44.6769 68.0564 45.0148 68.473 45.0148H80.1287C80.5452 45.0148 80.8829 44.6769 80.8829 44.2601V43.4797C80.8829 43.0629 80.5452 42.725 80.1287 42.725Z" fill="#1B53D6"/>
<path d="M89.567 46.6307H68.473C68.0564 46.6307 67.7188 46.9686 67.7188 47.3854V48.1658C67.7188 48.5826 68.0564 48.9205 68.473 48.9205H89.567C89.9836 48.9205 90.3212 48.5826 90.3212 48.1658V47.3854C90.3212 46.9686 89.9836 46.6307 89.567 46.6307Z" fill="#1B53D6"/>
<path opacity="0.7" d="M96.5382 52.1031H60.6948C59.2516 52.1031 58.0817 53.2739 58.0817 54.7181V77.5141C58.0817 78.9583 59.2516 80.129 60.6948 80.129H96.5382C97.9814 80.129 99.1513 78.9583 99.1513 77.5141V54.7181C99.1513 53.2739 97.9814 52.1031 96.5382 52.1031Z" fill="#169AFC"/>
<path fill-rule="evenodd" clip-rule="evenodd" d="M69.8238 55.8709L81.5799 71.5924L88.8483 65.3476L97.499 78.3595H59.7317L69.8238 55.8709Z" fill="#D2FFC2"/>
<path fill-rule="evenodd" clip-rule="evenodd" d="M82.9331 55.8709C83.4476 55.8709 83.9505 56.0236 84.3783 56.3096C84.8061 56.5957 85.1395 57.0022 85.3364 57.4779C85.5333 57.9536 85.5848 58.477 85.4844 58.9819C85.384 59.4869 85.1363 59.9507 84.7725 60.3148C84.4087 60.6789 83.9452 60.9268 83.4406 61.0272C82.936 61.1277 82.4129 61.0761 81.9376 60.8791C81.4623 60.6821 81.056 60.3484 80.7702 59.9203C80.4843 59.4922 80.3318 58.9889 80.3318 58.4741C80.3315 58.1322 80.3986 57.7935 80.5293 57.4776C80.6599 57.1616 80.8515 56.8746 81.0931 56.6328C81.3347 56.391 81.6216 56.1993 81.9373 56.0685C82.253 55.9378 82.5914 55.8707 82.9331 55.8709Z" fill="#FFC770"/>
<path style="mix-blend-mode:multiply" opacity="0.5" fill-rule="evenodd" clip-rule="evenodd" d="M139.884 43.8482L114.942 43.7517C114.547 43.7367 114.169 43.5827 113.876 43.3167C113.583 43.0507 113.393 42.6898 113.339 42.2973L112.813 37.9837L111.207 24.7806L136.855 24.8949L146.457 24.6584L148.466 24.9836L144.799 40.8549C144.388 43.2492 143.872 43.864 139.884 43.8482Z" fill="url(#paint14_linear_9_7)"/>
<path fill-rule="evenodd" clip-rule="evenodd" d="M122.514 18.2953H146.172C146.983 18.2953 147.497 18.9594 147.316 19.7713L142.891 39.5089C142.788 39.9158 142.556 40.2787 142.231 40.5441C141.906 40.8095 141.504 40.9633 141.085 40.9829H117.427C116.618 40.9829 116.102 40.3188 116.285 39.5089L120.71 19.7693C120.813 19.3625 121.044 18.9997 121.369 18.7343C121.694 18.4689 122.095 18.315 122.514 18.2953Z" fill="#1B53D6"/>
<path d="M141.306 13.091H118.633C117.242 13.091 116.114 14.2194 116.114 15.6114V37.8911C116.114 39.2831 117.242 40.4115 118.633 40.4115H141.306C142.697 40.4115 143.825 39.2831 143.825 37.8911V15.6114C143.825 14.2194 142.697 13.091 141.306 13.091Z" fill="#F2F4FF"/>
<path d="M141.595 15.4971H118.343C117.993 15.4971 117.709 15.7812 117.709 16.1316V17.5524C117.709 17.9029 117.993 18.187 118.343 18.187H141.595C141.945 18.187 142.229 17.9029 142.229 17.5524V16.1316C142.229 15.7812 141.945 15.4971 141.595 15.4971Z" fill="#DCE8F8"/>
<path d="M141.802 21.2592H118.136C117.9 21.2592 117.709 21.4506 117.709 21.6868V22.6386C117.709 22.8747 117.9 23.0662 118.136 23.0662H141.802C142.038 23.0662 142.229 22.8747 142.229 22.6386V21.6868C142.229 21.4506 142.038 21.2592 141.802 21.2592Z" fill="#DCE8F8"/>
<path d="M141.802 25.9097H118.136C117.9 25.9097 117.709 26.1012 117.709 26.3373V27.2892C117.709 27.5253 117.9 27.7168 118.136 27.7168H141.802C142.038 27.7168 142.229 27.5253 142.229 27.2892V26.3373C142.229 26.1012 142.038 25.9097 141.802 25.9097Z" fill="#DCE8F8"/>
<path d="M141.802 30.5604H118.136C117.9 30.5604 117.709 30.7519 117.709 30.988V31.9398C117.709 32.176 117.9 32.3675 118.136 32.3675H141.802C142.038 32.3675 142.229 32.176 142.229 31.9398V30.988C142.229 30.7519 142.038 30.5604 141.802 30.5604Z" fill="#DCE8F8"/>
<path fill-rule="evenodd" clip-rule="evenodd" d="M131.151 20.6423H138.712C139.076 20.6524 139.425 20.7905 139.696 21.0324C139.968 21.2743 140.146 21.6044 140.199 21.9646L142.397 39.6607C142.422 39.8263 142.411 39.9955 142.365 40.1565C142.318 40.3174 142.237 40.4661 142.126 40.5922C142.016 40.7182 141.879 40.8186 141.726 40.8861C141.572 40.9536 141.406 40.9866 141.239 40.9829H117.276C116.912 40.9729 116.563 40.8347 116.292 40.5929C116.02 40.351 115.842 40.0209 115.789 39.6607L115.302 35.7313L113.591 21.9587L113.29 19.525C113.25 19.2662 113.266 19.0017 113.339 18.7502C113.412 18.4986 113.539 18.2661 113.712 18.069C113.884 17.8719 114.097 17.7151 114.337 17.6095C114.576 17.5039 114.836 17.4521 115.098 17.4578H125.089C126.226 17.4578 126.791 17.8717 127.531 18.8215C128.788 20.4531 129.044 20.6423 131.151 20.6423Z" fill="#70C851"/>
<path style="mix-blend-mode:multiply" opacity="0.5" fill-rule="evenodd" clip-rule="evenodd" d="M127.453 99.1256V114.423C127.453 118.118 124.613 121.149 121.151 121.149H81.3438V92.4H121.151C124.621 92.4 127.453 95.4268 127.453 99.1256Z" fill="url(#paint15_linear_9_7)"/>
<path fill-rule="evenodd" clip-rule="evenodd" d="M123.747 98.3197V111.781C123.741 113.348 123.118 114.85 122.011 115.959C120.905 117.068 119.405 117.695 117.839 117.703H72.8683C71.302 117.695 69.8021 117.069 68.6955 115.959C67.5889 114.85 66.9654 113.348 66.9607 111.781V98.3197C66.9674 96.7538 67.592 95.254 68.6984 94.1468C69.8049 93.0396 71.3036 92.4146 72.8683 92.4078H117.831C119.397 92.4125 120.898 93.0366 122.006 94.144C123.114 95.2515 123.74 96.7525 123.747 98.3197Z" fill="url(#paint16_linear_9_7)"/>
<path fill-rule="evenodd" clip-rule="evenodd" d="M86.4774 100.619H120.676C120.806 100.624 120.934 100.655 121.051 100.709C121.169 100.763 121.275 100.84 121.363 100.936C121.451 101.031 121.52 101.143 121.564 101.265C121.609 101.387 121.629 101.516 121.624 101.646V103.94C121.632 104.201 121.538 104.455 121.36 104.647C121.183 104.84 120.938 104.954 120.676 104.966H86.4774C86.216 104.955 85.9699 104.84 85.7922 104.648C85.6145 104.456 85.5197 104.201 85.5282 103.94V101.646C85.5227 101.516 85.5429 101.386 85.5877 101.264C85.6325 101.142 85.701 101.03 85.7892 100.935C85.8774 100.839 85.9837 100.762 86.1018 100.708C86.2199 100.654 86.3476 100.624 86.4774 100.619Z" fill="white"/>
<path d="M114.671 107.113H86.0876C85.7787 107.113 85.5283 107.363 85.5283 107.672V108.922C85.5283 109.231 85.7787 109.481 86.0876 109.481H114.671C114.979 109.481 115.23 109.231 115.23 108.922V107.672C115.23 107.363 114.979 107.113 114.671 107.113Z" fill="white"/>
<path opacity="0.2" fill-rule="evenodd" clip-rule="evenodd" d="M76.5233 98.905C77.7381 98.9046 78.9258 99.2647 79.9361 99.9398C80.9464 100.615 81.7339 101.575 82.1991 102.698C82.6643 103.821 82.7862 105.057 82.5494 106.249C82.3126 107.442 81.7278 108.537 80.8689 109.397C80.01 110.256 78.9157 110.842 77.7242 111.079C76.5327 111.317 75.2977 111.195 74.1753 110.73C73.0529 110.265 72.0935 109.477 71.4185 108.466C70.7436 107.455 70.3833 106.267 70.3833 105.051C70.383 104.244 70.5417 103.445 70.8501 102.699C71.1586 101.954 71.6108 101.276 72.181 100.705C72.7511 100.135 73.4281 99.6818 74.1731 99.3729C74.9182 99.064 75.7168 98.905 76.5233 98.905Z" fill="white"/>
<path fill-rule="evenodd" clip-rule="evenodd" d="M76.5229 101.134C77.2973 101.133 78.0543 101.363 78.6984 101.793C79.3424 102.223 79.8445 102.835 80.1411 103.551C80.4377 104.267 80.5155 105.054 80.3647 105.814C80.2138 106.574 79.8411 107.273 79.2937 107.821C78.7463 108.369 78.0488 108.742 77.2893 108.893C76.5299 109.045 75.7427 108.967 75.0272 108.671C74.3118 108.374 73.7002 107.872 73.27 107.228C72.8398 106.584 72.6101 105.826 72.6101 105.051C72.6101 104.013 73.0223 103.016 73.756 102.282C74.4898 101.547 75.485 101.134 76.5229 101.134ZM76.5229 102.685C76.0555 102.685 75.5987 102.823 75.2101 103.083C74.8215 103.343 74.5186 103.712 74.3397 104.144C74.1609 104.576 74.1141 105.052 74.2053 105.511C74.2965 105.969 74.5215 106.391 74.852 106.721C75.1825 107.052 75.6035 107.277 76.0619 107.369C76.5203 107.46 76.9954 107.413 77.4272 107.234C77.859 107.055 78.2281 106.752 78.4877 106.363C78.7474 105.974 78.886 105.517 78.886 105.049C78.886 104.422 78.637 103.821 78.1938 103.377C77.7507 102.934 77.1496 102.685 76.5229 102.685Z" fill="white"/>
<path fill-rule="evenodd" clip-rule="evenodd" d="M66.498 111.265C68.3037 111.264 70.069 111.8 71.5706 112.803C73.0722 113.807 74.2426 115.234 74.9338 116.903C75.6251 118.573 75.806 120.41 75.4538 122.182C75.1016 123.954 74.2321 125.582 72.9553 126.86C71.6784 128.138 70.0516 129.008 68.2805 129.361C66.5094 129.713 64.6737 129.532 63.0054 128.84C61.3372 128.149 59.9114 126.977 58.9085 125.475C57.9055 123.972 57.3703 122.205 57.3707 120.398C57.3712 117.976 58.333 115.653 60.0446 113.94C61.7562 112.228 64.0774 111.265 66.498 111.265Z" fill="white"/>
<path fill-rule="evenodd" clip-rule="evenodd" d="M66.4977 117.117C67.2672 117.116 68.0257 117.3 68.7091 117.653V116.274C68.7081 116.192 68.6752 116.114 68.6175 116.056C68.5597 115.998 68.4817 115.966 68.4 115.965H64.5975C64.5158 115.966 64.4377 115.998 64.38 116.056C64.3222 116.114 64.2893 116.192 64.2883 116.274V117.653C64.9712 117.3 65.729 117.116 66.4977 117.117ZM70.6331 119.451C71.0727 120.182 71.3103 121.017 71.3218 121.87C71.3333 122.724 71.1182 123.565 70.6984 124.308C70.2786 125.051 69.6693 125.669 68.9326 126.099C68.196 126.529 67.3584 126.755 66.5056 126.755C65.6528 126.755 64.8152 126.529 64.0786 126.099C63.3419 125.669 62.7326 125.051 62.3128 124.308C61.893 123.565 61.6779 122.724 61.6894 121.87C61.7009 121.017 61.9386 120.182 62.3782 119.451V116.268C62.3803 115.678 62.6156 115.112 63.0329 114.695C63.4502 114.278 64.0155 114.043 64.6053 114.041H68.4079C68.9977 114.042 69.5631 114.277 69.9802 114.695C70.3972 115.112 70.632 115.678 70.6331 116.268V119.451Z" fill="url(#paint17_linear_9_7)"/>
<path fill-rule="evenodd" clip-rule="evenodd" d="M66.4978 120.879C66.7001 120.878 66.8976 120.941 67.0626 121.058C67.2277 121.175 67.3521 121.341 67.4185 121.532C67.4849 121.723 67.4899 121.93 67.4328 122.125C67.3758 122.319 67.2596 122.49 67.1003 122.615V124.409C67.0998 124.568 67.0362 124.721 66.9233 124.834C66.8104 124.947 66.6574 125.011 66.4978 125.012C66.3383 125.011 66.1855 124.947 66.073 124.834C65.9604 124.721 65.8972 124.568 65.8972 124.409V122.615C65.7381 122.49 65.6219 122.319 65.5648 122.125C65.5077 121.931 65.5126 121.724 65.5787 121.533C65.6448 121.342 65.7689 121.176 65.9337 121.059C66.0984 120.942 66.2956 120.879 66.4978 120.879Z" fill="#21389B"/>
<path style="mix-blend-mode:multiply" opacity="0.5" fill-rule="evenodd" clip-rule="evenodd" d="M95.8447 130.32C96.0683 129.378 96.6029 128.538 97.3621 127.936C98.1213 127.335 99.061 127.007 100.029 127.006H109.088C110.056 127.007 110.996 127.335 111.756 127.936C112.515 128.537 113.05 129.377 113.274 130.32H117.409C119.098 130.323 120.717 130.996 121.911 132.191C123.105 133.386 123.778 135.005 123.782 136.695V154.73H88.73C87.553 154.731 86.3933 154.448 85.3489 153.905V136.695C85.352 135.005 86.0244 133.385 87.2189 132.19C88.4133 130.995 90.0323 130.323 91.7212 130.32H95.8447Z" fill="url(#paint18_linear_9_7)"/>
<path d="M117.403 132.908H91.7211C89.6308 132.908 87.9363 134.604 87.9363 136.695V154.821C87.9363 156.913 89.6308 158.608 91.7211 158.608H117.403C119.494 158.608 121.188 156.913 121.188 154.821V136.695C121.188 134.604 119.494 132.908 117.403 132.908Z" fill="#1B53D6"/>
<g style="mix-blend-mode:multiply" opacity="0.5">
<path fill-rule="evenodd" clip-rule="evenodd" d="M91.7211 134.565H117.409C118.41 134.566 119.37 134.962 120.079 135.669C120.788 136.375 121.189 137.334 121.194 138.335V144.763L111.328 150.188H107.622V150.915C107.628 151.163 107.536 151.403 107.366 151.584C107.196 151.764 106.962 151.87 106.715 151.879H102.695C102.448 151.871 102.213 151.765 102.043 151.584C101.873 151.404 101.781 151.163 101.788 150.915V150.188H97.8039L87.9363 144.763V138.335C87.9415 137.334 88.3425 136.375 89.0516 135.669C89.7608 134.962 90.7205 134.566 91.7211 134.565Z" fill="#E23B93"/>
</g>
<path fill-rule="evenodd" clip-rule="evenodd" d="M100.03 129.595H109.088C109.542 129.596 109.977 129.777 110.298 130.098C110.619 130.419 110.8 130.854 110.801 131.308V134.23C104.458 137.732 104.647 137.732 98.3066 134.23V131.306C98.3082 130.852 98.4893 130.417 98.8103 130.096C99.1313 129.775 99.5661 129.594 100.02 129.593L100.03 129.595ZM101.377 131.251C101.038 131.241 100.71 131.367 100.463 131.599C100.216 131.831 100.071 132.151 100.059 132.49V134.599C104.907 137.117 104.218 137.117 109.066 134.599V132.488C109.055 132.15 108.91 131.829 108.664 131.597C108.418 131.365 108.089 131.24 107.751 131.249L101.377 131.251Z" fill="#FEC82E"/>
<g style="mix-blend-mode:multiply" opacity="0.5">
<path fill-rule="evenodd" clip-rule="evenodd" d="M110.811 131.968V134.23C104.468 137.732 104.657 137.732 98.3162 134.23V131.968H100.183C100.102 132.13 100.059 132.309 100.059 132.49V134.598C104.907 137.117 104.218 137.117 109.066 134.598V132.488C109.066 132.307 109.025 132.128 108.944 131.966L110.811 131.968Z" fill="#E23B93"/>
</g>
<path fill-rule="evenodd" clip-rule="evenodd" d="M91.7211 132.908H117.409C118.412 132.91 119.373 133.31 120.083 134.02C120.792 134.73 121.191 135.692 121.194 136.695V143.151L111.328 148.6H97.8039L87.9363 143.151V136.695C87.9394 135.692 88.3391 134.73 89.0483 134.021C89.7574 133.311 90.7182 132.911 91.7211 132.908Z" fill="url(#paint19_linear_9_7)"/>
<path d="M106.236 146.468H103.174C102.792 146.468 102.481 146.778 102.481 147.161V149.979C102.481 150.362 102.792 150.673 103.174 150.673H106.236C106.619 150.673 106.93 150.362 106.93 149.979V147.161C106.93 146.778 106.619 146.468 106.236 146.468Z" fill="url(#paint20_linear_9_7)"/>
<path fill-rule="evenodd" clip-rule="evenodd" d="M103.3 146.641H106.112C106.28 146.642 106.441 146.709 106.56 146.829C106.679 146.948 106.746 147.109 106.746 147.277V149.863C106.104 147.813 105.242 147.35 103.3 146.641Z" fill="#FFD85E"/>
<path fill-rule="evenodd" clip-rule="evenodd" d="M69.2352 59.6367C69.3691 57.8158 69.9284 57.7015 72.2953 56.1782C72.7896 55.8629 73.2603 55.4353 74.3472 54.182C75.1034 54.8087 74.5442 55.4767 74.0204 56.399C73.7458 56.8824 73.5359 57.3998 73.3961 57.938C75.5288 57.8079 76.2495 57.4079 76.7438 56.8483C79.2328 54.0677 79.6858 53.5534 82.9645 53.5632C81.4305 55.5555 80.2804 56.8364 79.479 58.9272C78.9867 60.2121 79.0851 60.1096 78.201 60.5155C76.9978 61.0653 75.9777 61.6408 74.8533 62.1945C72.3308 63.4281 72.3958 64.0567 70.7594 66.3742L67.6382 64.5908C68.739 62.2517 69.0422 62.226 69.2352 59.6367Z" fill="url(#paint21_linear_9_7)"/>
<path fill-rule="evenodd" clip-rule="evenodd" d="M70.6353 61.5265C71.8365 58.6829 72.8506 58.5016 76.407 57.4769L78.3762 58.6592L76.7024 58.0247C74.2507 59.1972 71.8857 59.0553 70.6353 61.5265Z" fill="#FF8978"/>
<path fill-rule="evenodd" clip-rule="evenodd" d="M44.6734 58.2494C51.8019 60.555 54.0094 70.7194 57.7764 70.5598C61.0906 70.4139 64.0956 67.6551 68.3767 61.4851C69.4656 61.4398 71.49 62.8291 72.3663 64.5612C69.3416 69.8563 65.0113 79.5241 58.188 79.7526C54.6434 79.8709 49.1651 77.045 45.8785 72.7668C40.2899 65.4874 41.9677 65.6076 44.6734 58.2494Z" fill="url(#paint22_linear_9_7)"/>
<g style="mix-blend-mode:multiply" opacity="0.35">
<path fill-rule="evenodd" clip-rule="evenodd" d="M45.8901 65.2352C50.372 73.3837 54.1607 76.8106 57.8687 77.4983C59.8064 77.8589 63.481 76.4559 68.209 71.8663C65.6254 75.9218 62.3762 79.6128 58.1878 79.7487C54.6432 79.867 49.1649 77.0411 45.8783 72.7629L45.8901 65.2352Z" fill="#6266D7"/>
</g>
<path fill-rule="evenodd" clip-rule="evenodd" d="M15.4759 158.859C17.1242 160.305 17.6814 160.906 19.8082 160.991C21.545 161.062 22.1377 160.611 23.1322 159.809C24.2389 158.92 24.5855 158.36 24.5796 157.556C24.5658 156.019 23.7919 154.62 23.7092 152.695L20.2197 152.854L18.7133 152.147C18.0379 153.034 16.6063 154.667 15.598 156.108C15.1038 156.821 15.2593 158.106 15.4759 158.859Z" fill="#0F2F64"/>
<path style="mix-blend-mode:multiply" opacity="0.5" fill-rule="evenodd" clip-rule="evenodd" d="M24.0695 154.837C23.8801 154.137 23.7633 153.42 23.721 152.697L20.2315 152.856L18.7251 152.149C18.4593 152.498 18.0772 152.963 17.6479 153.485C19.0008 154.939 23.1715 155.755 24.0695 154.837Z" fill="url(#paint23_linear_9_7)"/>
<path fill-rule="evenodd" clip-rule="evenodd" d="M42.2769 151.406C41.9913 152.829 41.1249 153.914 40.989 154.953C40.7527 156.752 41.7885 158.561 43.9172 158.581L57.8335 158.703C57.097 153.946 49.6574 156.585 47.1585 151.309L43.9192 151.491L42.2769 151.406Z" fill="#0F2F64"/>
<path style="mix-blend-mode:multiply" opacity="0.5" fill-rule="evenodd" clip-rule="evenodd" d="M42.2766 151.406C42.1818 151.851 42.0412 152.285 41.8572 152.701C43.1608 153.605 45.6774 154.218 48.5899 153.217C47.9848 152.69 47.4971 152.042 47.1583 151.315L43.9189 151.496L42.2766 151.406Z" fill="url(#paint24_linear_9_7)"/>
<path fill-rule="evenodd" clip-rule="evenodd" d="M51.8114 90.6817C52.3805 94.0947 52.5656 97.3463 52.5183 101.591C52.3411 117.539 49.7772 135.6 48.0719 151.534C45.7994 152.405 43.3025 152.36 41.4101 151.579C41.1364 142.355 41.0379 132.847 40.5574 123.731C39.9509 112.25 38.5055 103.268 35.8845 88.9377L46.6521 88.5731L51.8114 90.6817Z" fill="#0738A9"/>
<g style="mix-blend-mode:multiply" opacity="0.3">
<path fill-rule="evenodd" clip-rule="evenodd" d="M44.9707 90.6816C45.5339 94.0947 45.5339 103.914 45.4945 108.165C45.335 122.385 43.1591 137.505 41.4104 151.579C41.1367 142.355 41.0382 132.847 40.5578 123.731C40.0261 113.681 38.8524 105.538 36.8163 94.0494L44.9707 90.6816Z" fill="#1E2353"/>
</g>
<path fill-rule="evenodd" clip-rule="evenodd" d="M30.5089 91.868C29.6562 94.4495 28.5397 96.4004 27.3582 101.676C26.0821 107.41 25.7198 112.817 24.7627 118.392C22.8378 129.787 20.3403 141.077 17.2798 152.22C19.1663 153.796 22.8625 153.796 24.2133 153.315C28.2463 144.134 30.7275 135.176 34.2799 125.867C39.1438 113.111 44.4528 100.336 48.6551 88.2164L30.5089 91.868Z" fill="#0738AB"/>
<path fill-rule="evenodd" clip-rule="evenodd" d="M29.6975 70.6938C29.6326 77.6185 30.05 87.0971 29.6523 93.8681C37.1805 95.482 45.2542 96.0752 52.5304 93.5942C52.4379 89.1012 51.3863 82.4011 50.317 76.1977C49.5825 71.9471 50.3879 67.9211 49.5293 64.1592C48.7692 60.8388 46.9221 58.8051 44.2578 58.0307C42.2618 57.4695 40.1888 57.2327 38.1178 57.3291C33.4469 57.5163 28.1557 58.809 24.8179 62.8705C20.5998 67.5349 25.6193 74.5759 29.6975 70.6938Z" fill="url(#paint25_linear_9_7)"/>
<path fill-rule="evenodd" clip-rule="evenodd" d="M34.9435 54.0835C34.8975 55.4051 34.7607 56.7219 34.5339 58.0247C35.1523 60.1924 37.1766 61.6191 39.1891 61.3471C40.924 61.1126 41.3769 58.7676 40.7842 57.3172C40.7047 56.6506 40.6587 55.9804 40.6463 55.3092L36.2668 54.0303L34.9435 54.0835Z" fill="#FFA698"/>
<path fill-rule="evenodd" clip-rule="evenodd" d="M34.9435 54.0835C34.9219 54.5013 34.8431 55.6915 34.8156 56.0699C36.0817 58.7302 39.6401 59.2938 40.859 57.9912C40.7744 57.2858 40.6621 56.0206 40.6464 55.3171L36.2669 54.0382L34.9435 54.0835Z" fill="url(#paint26_linear_9_7)"/>
<path fill-rule="evenodd" clip-rule="evenodd" d="M34.2579 52.3848C33.1335 52.5976 32.846 52.2173 32.5861 51.4665C32.3262 50.7157 32.3399 50.9049 31.8614 50.3137C31.6528 50.0564 31.486 49.7678 31.3672 49.4585C31.0048 48.5047 31.2136 47.9273 31.1978 47.1923C31.1801 46.2818 30.7862 45.937 30.6228 45.3478C29.8351 42.4924 32.2907 40.0035 34.9649 41.3159C35.9318 39.5759 37.4677 39.5424 38.8659 40.3464C40.4984 39.3611 42.0658 39.4675 43.1725 40.7405C45.319 43.2038 43.3084 45.667 41.8315 46.3173L37.133 49.6673L34.2579 52.3848Z" fill="url(#paint27_linear_9_7)"/>
<path fill-rule="evenodd" clip-rule="evenodd" d="M34.2582 52.3849C33.1338 52.5978 32.8463 52.2174 32.5863 51.4666C32.3264 50.7158 32.3402 50.905 31.8617 50.3138C31.653 50.0565 31.4862 49.7679 31.3674 49.4586C31.0051 48.5048 31.2138 47.9274 31.198 47.1924V47.1608C31.8951 48.3609 33.3799 48.5935 33.5197 46.9066C34.2562 46.3155 34.7308 45.6021 34.8332 44.7567C34.9631 43.6867 35.4239 43.0955 36.6055 43.4344C39.3781 44.2227 41.6466 45.6711 44.0884 43.3595C43.9132 44.7606 42.7671 45.8937 41.8337 46.3155L37.1352 49.6655L34.2582 52.3849Z" fill="#22043D"/>
<path fill-rule="evenodd" clip-rule="evenodd" d="M42.3832 45.9784C42.5801 48.889 43.0488 51.8705 41.9205 54.6491C41.5109 55.6541 40.8571 56.2788 39.2896 55.9418C38.2046 55.7093 37.0703 55.2127 36.0641 54.8028C34.536 54.1821 34.7585 53.5692 34.5005 53.0293C34.3658 52.7674 34.1984 52.5237 34.0023 52.3041C33.3997 51.5966 32.3935 51.169 32.356 50.1679C32.3206 49.2477 33.0138 48.755 33.3682 49.3797C33.8625 50.2606 34.9889 51.7444 34.1382 47.1036C35.0657 46.4021 35.2449 46.1183 35.489 45.3636C35.7332 44.6089 35.9873 44.0394 36.8675 44.5103C38.6929 45.4897 40.2644 46.4317 42.3832 45.9784Z" fill="url(#paint28_linear_9_7)"/>
<path fill-rule="evenodd" clip-rule="evenodd" d="M42.3831 45.9785C42.4028 46.2622 42.4264 46.548 42.4481 46.8317C39.6243 47.3185 38.2104 46.075 36.4086 44.9281C35.7607 46.0356 35.5953 46.3588 34.6757 47.2554C34.6973 47.5786 35.0341 49.3679 34.8056 50.2468C34.6205 50.9621 34.2385 50.8596 33.821 50.4241C33.5434 50.1345 32.9349 48.824 32.415 49.6536C32.5903 49.09 33.0826 48.8851 33.3642 49.3837C33.8585 50.2645 34.9848 51.7484 34.1341 47.1076C35.0616 46.4061 35.2408 46.1223 35.485 45.3676C35.7292 44.6128 35.9832 44.0433 36.8635 44.5143C38.6928 45.4897 40.2643 46.4317 42.3831 45.9785Z" fill="#FFA698"/>
<path fill-rule="evenodd" clip-rule="evenodd" d="M38.7696 63.9464L39.5356 81.9341L42.6864 85.9167L44.754 81.1202L39.9452 63.6094C40.4415 62.1394 40.278 61.8024 39.9945 61.5856C39.6617 61.3314 39.9846 61.3019 38.876 61.4359C38.1474 61.5245 37.401 61.5994 37.5074 62.3877C37.5999 62.9946 38.1237 63.4321 38.7696 63.9464Z" fill="#0738AB"/>
<path fill-rule="evenodd" clip-rule="evenodd" d="M34.6717 57.0336C34.0396 57.2444 33.5689 57.4572 33.4587 57.8612C33.0786 59.2584 35.4869 63.1937 37.0544 63.5622C37.4846 62.6727 38.1465 61.9156 38.9705 61.3709C36.3751 60.6063 34.9553 59.3333 34.6717 57.0336Z" fill="#4E9C3C"/>
<path fill-rule="evenodd" clip-rule="evenodd" d="M40.7802 56.8912C41.2488 56.9069 41.6663 57.0606 41.747 57.1513C42.4107 57.8922 42.4422 61.0255 41.3788 62.8089C40.6613 62.0836 39.8196 61.4929 38.8937 61.0649C41.2134 59.6835 41.0047 58.3337 40.7802 56.8912Z" fill="#4E9C3C"/>
<path fill-rule="evenodd" clip-rule="evenodd" d="M45.8233 74.5207L33.2933 72.0989C33.0275 72.0485 32.7527 72.1055 32.5288 72.2572C32.3048 72.4089 32.15 72.6432 32.098 72.9088L28.3447 92.5991C28.2944 92.8645 28.3511 93.139 28.5023 93.3628C28.6536 93.5865 28.8872 93.7413 29.1521 93.7933L41.6821 96.2151C41.9476 96.2661 42.2224 96.2096 42.4465 96.0582C42.6705 95.9068 42.8254 95.6727 42.8774 95.4072L46.6307 75.7169C46.6815 75.4512 46.6252 75.1762 46.4738 74.952C46.3225 74.7278 46.0886 74.5727 45.8233 74.5207Z" fill="#9FD2FB"/>
<g style="mix-blend-mode:multiply" opacity="0.5">
<path fill-rule="evenodd" clip-rule="evenodd" d="M29.6896 85.5443L28.5986 91.2256C31.0562 91.4226 33.2952 91.6197 35.7055 92.2109C37.0504 93.208 38.7833 93.8583 43.279 93.2612L43.9623 89.6747L40.4138 89.7259L29.6896 85.5443Z" fill="#9FD2FB"/>
</g>
<path fill-rule="evenodd" clip-rule="evenodd" d="M44.5098 88.9494C44.2479 90.5358 44.1002 91.3694 43.7989 91.6039C43.0348 92.195 40.0259 92.0394 38.4564 91.8009C37.0642 91.6039 36.4735 89.8835 35.4711 89.8106C34.8981 88.4548 36.2214 86.766 36.9736 85.6979C39.0531 86.4862 42.6508 85.3708 44.4015 85.9068C45.4628 86.2379 44.6456 88.1238 44.5098 88.9494Z" fill="url(#paint29_linear_9_7)"/>
<path fill-rule="evenodd" clip-rule="evenodd" d="M44.2953 90.1909C44.1436 90.9791 44.0078 91.4403 43.799 91.6038C43.035 92.195 40.026 92.0393 38.4566 91.8009C37.0644 91.6038 36.4736 89.8835 35.4713 89.8106C34.8982 88.4548 35.5382 89.8697 36.2905 88.8036C38.5491 90.6323 41.0658 90.1712 44.2953 90.1909Z" fill="url(#paint30_linear_9_7)"/>
<path fill-rule="evenodd" clip-rule="evenodd" d="M30.4713 70.68C27.9114 73.9807 25.0619 76.3711 25.6704 78.322C26.655 81.4749 30.9873 83.1854 38.0075 85.7295C38.3284 86.766 37.5545 89.2766 36.1151 90.5634C30.2606 89.0066 19.879 87.3119 17.9157 80.8069C17.325 78.8186 17.3525 76.0065 18.156 73.1629C19.5935 68.0729 25.1447 61.0989 29.9712 59.1716C31.838 58.4189 32.3559 68.2463 30.4713 70.68Z" fill="url(#paint31_linear_9_7)"/>
<g style="mix-blend-mode:multiply" opacity="0.35">
<path fill-rule="evenodd" clip-rule="evenodd" d="M35.8433 84.9373C36.5326 85.1935 37.2546 85.4562 38.0095 85.7256C38.3304 86.7621 37.5565 89.2726 36.1171 90.5595C30.2626 89.0027 19.881 87.308 17.9177 80.803C21.3126 86.3759 33.2046 89.3771 35.8433 84.9373Z" fill="#6266D7"/>
</g>
<defs>
<linearGradient id="paint0_linear_9_7" x1="106.049" y1="143.49" x2="131.747" y2="23.253" gradientUnits="userSpaceOnUse">
<stop stop-color="#8DBEFF"/>
<stop offset="1" stop-color="#0090FA"/>
</linearGradient>
<linearGradient id="paint1_linear_9_7" x1="23387.7" y1="3576.89" x2="23296" y2="1783.12" gradientUnits="userSpaceOnUse">
<stop stop-color="#0738A9"/>
<stop offset="1" stop-color="#9EB9E6"/>
</linearGradient>
<linearGradient id="paint2_linear_9_7" x1="8.41627" y1="96.4811" x2="13.2702" y2="107.459" gradientUnits="userSpaceOnUse">
<stop stop-color="#7BA8F3"/>
<stop offset="1" stop-color="#9EB9E6"/>
</linearGradient>
<linearGradient id="paint3_linear_9_7" x1="17.7031" y1="26.9246" x2="20.0293" y2="22.6991" gradientUnits="userSpaceOnUse">
<stop stop-color="#169AFC"/>
<stop offset="1" stop-color="#3FB0F7"/>
</linearGradient>
<linearGradient id="paint4_linear_9_7" x1="156.524" y1="57.2168" x2="157.31" y2="60.4562" gradientUnits="userSpaceOnUse">
<stop stop-color="#FF8A78"/>
<stop offset="1" stop-color="#FFA799"/>
</linearGradient>
<linearGradient id="paint5_linear_9_7" x1="153.44" y1="49.5098" x2="155.512" y2="54.6895" gradientUnits="userSpaceOnUse">
<stop stop-color="#FFB89E"/>
<stop offset="1" stop-color="#FFA799"/>
</linearGradient>
<linearGradient id="paint6_linear_9_7" x1="153.796" y1="43.0028" x2="156.975" y2="46.7447" gradientUnits="userSpaceOnUse">
<stop stop-color="#5A2D68"/>
<stop offset="1" stop-color="#22043D"/>
</linearGradient>
<linearGradient id="paint7_linear_9_7" x1="162.474" y1="72.0594" x2="165.192" y2="80.9576" gradientUnits="userSpaceOnUse">
<stop stop-color="#178DE4"/>
<stop offset="1" stop-color="#17ADC9"/>
</linearGradient>
<linearGradient id="paint8_linear_9_7" x1="26054.8" y1="39085.4" x2="33895.5" y2="44378.6" gradientUnits="userSpaceOnUse">
<stop stop-color="#235DA3"/>
<stop offset="1" stop-color="#123A76"/>
</linearGradient>
<linearGradient id="paint9_linear_9_7" x1="28355" y1="17826.6" x2="30130.4" y2="21999.6" gradientUnits="userSpaceOnUse">
<stop stop-color="#178DE4"/>
<stop offset="1" stop-color="#17ADC9"/>
</linearGradient>
<linearGradient id="paint10_linear_9_7" x1="8081.29" y1="6337.7" x2="8208.34" y2="6363.47" gradientUnits="userSpaceOnUse">
<stop stop-color="#FFB89E"/>
<stop offset="1" stop-color="#FFA799"/>
</linearGradient>
<linearGradient id="paint11_linear_9_7" x1="4857.48" y1="4919.21" x2="4798.39" y2="4914.85" gradientUnits="userSpaceOnUse">
<stop stop-color="#FF8A78"/>
<stop offset="1" stop-color="#FFA799"/>
</linearGradient>
<linearGradient id="paint12_linear_9_7" x1="12022.6" y1="18431.8" x2="10083.2" y2="22988.8" gradientUnits="userSpaceOnUse">
<stop stop-color="#178DE4"/>
<stop offset="1" stop-color="#17ADC9"/>
</linearGradient>
<linearGradient id="paint13_linear_9_7" x1="17061.4" y1="24553.5" x2="23499.3" y2="16656.7" gradientUnits="userSpaceOnUse">
<stop stop-color="#965CF2"/>
<stop offset="1" stop-color="#FF8ADC"/>
</linearGradient>
<linearGradient id="paint14_linear_9_7" x1="34074.1" y1="5180.26" x2="34744" y2="2425.92" gradientUnits="userSpaceOnUse">
<stop stop-color="#965CF2"/>
<stop offset="1" stop-color="#FF8ADC"/>
</linearGradient>
<linearGradient id="paint15_linear_9_7" x1="34426.4" y1="19585.2" x2="37181.6" y2="14311.5" gradientUnits="userSpaceOnUse">
<stop stop-color="#965CF2"/>
<stop offset="1" stop-color="#FF8ADC"/>
</linearGradient>
<linearGradient id="paint16_linear_9_7" x1="43075.4" y1="14464.1" x2="43041.7" y2="16810.1" gradientUnits="userSpaceOnUse">
<stop stop-color="#1B53D6"/>
<stop offset="1" stop-color="#255CDC"/>
</linearGradient>
<linearGradient id="paint17_linear_9_7" x1="5855.93" y1="8630.91" x2="6097.61" y2="9058.39" gradientUnits="userSpaceOnUse">
<stop stop-color="#1C8EF4"/>
<stop offset="1" stop-color="#00CFDD"/>
</linearGradient>
<linearGradient id="paint18_linear_9_7" x1="29606.8" y1="23989.7" x2="31709.4" y2="19964.3" gradientUnits="userSpaceOnUse">
<stop stop-color="#0738AB"/>
<stop offset="1" stop-color="#8CAFFF"/>
</linearGradient>
<linearGradient id="paint19_linear_9_7" x1="26726.4" y1="12965.3" x2="26752.1" y2="12077.6" gradientUnits="userSpaceOnUse">
<stop stop-color="#3A9CE7"/>
<stop offset="1" stop-color="#0363F4"/>
</linearGradient>
<linearGradient id="paint20_linear_9_7" x1="104.687" y1="147" x2="104.718" y2="149.688" gradientUnits="userSpaceOnUse">
<stop stop-color="#FDD248"/>
<stop offset="1" stop-color="#FABD23"/>
</linearGradient>
<linearGradient id="paint21_linear_9_7" x1="10008.9" y1="4764.44" x2="10099.3" y2="4974.49" gradientUnits="userSpaceOnUse">
<stop stop-color="#FFB89E"/>
<stop offset="1" stop-color="#FFA799"/>
</linearGradient>
<linearGradient id="paint22_linear_9_7" x1="54.4702" y1="58.3834" x2="61.0633" y2="75.3195" gradientUnits="userSpaceOnUse">
<stop stop-color="#70C851"/>
<stop offset="1" stop-color="#61C53E"/>
</linearGradient>
<linearGradient id="paint23_linear_9_7" x1="21.7596" y1="155.54" x2="20.1607" y2="151.935" gradientUnits="userSpaceOnUse">
<stop stop-color="#002041"/>
<stop offset="1" stop-color="#004975"/>
</linearGradient>
<linearGradient id="paint24_linear_9_7" x1="3425.37" y1="2222.11" x2="3415.84" y2="2177.15" gradientUnits="userSpaceOnUse">
<stop stop-color="#002041"/>
<stop offset="1" stop-color="#004975"/>
</linearGradient>
<linearGradient id="paint25_linear_9_7" x1="13358.7" y1="15483.5" x2="14906.9" y2="20634.1" gradientUnits="userSpaceOnUse">
<stop stop-color="#70C851"/>
<stop offset="1" stop-color="#5E65D6"/>
</linearGradient>
<linearGradient id="paint26_linear_9_7" x1="2839.66" y1="1735.43" x2="2831.26" y2="1774.63" gradientUnits="userSpaceOnUse">
<stop stop-color="#FFA698"/>
<stop offset="1" stop-color="#FFA698"/>
</linearGradient>
<linearGradient id="paint27_linear_9_7" x1="6306.63" y1="3732.03" x2="6330.4" y2="4032.86" gradientUnits="userSpaceOnUse">
<stop stop-color="#5A2D68"/>
<stop offset="1" stop-color="#22043D"/>
</linearGradient>
<linearGradient id="paint28_linear_9_7" x1="4847.93" y1="3819.36" x2="4724.07" y2="4129.42" gradientUnits="userSpaceOnUse">
<stop stop-color="#FFB89E"/>
<stop offset="1" stop-color="#FFA799"/>
</linearGradient>
<linearGradient id="paint29_linear_9_7" x1="4641.18" y1="3371.85" x2="4606.4" y2="3497.48" gradientUnits="userSpaceOnUse">
<stop stop-color="#FFB89E"/>
<stop offset="1" stop-color="#FFA799"/>
</linearGradient>
<linearGradient id="paint30_linear_9_7" x1="4288.53" y1="1827.64" x2="4296.26" y2="1788.34" gradientUnits="userSpaceOnUse">
<stop stop-color="#FF8A78"/>
<stop offset="1" stop-color="#FFA799"/>
</linearGradient>
<linearGradient id="paint31_linear_9_7" x1="9107.13" y1="14203.9" x2="7752.85" y2="15215.5" gradientUnits="userSpaceOnUse">
<stop stop-color="#70C851"/>
<stop offset="1" stop-color="#5E65D6"/>
</linearGradient>
</defs>
</svg>
